<?xml version="1.0" encoding="utf-8"?>
<!-- Generator: Adobe Illustrator 27.5.0, SVG Export Plug-In . SVG Version: 6.00 Build 0)  -->
<svg version="1.1" xmlns="http://www.w3.org/2000/svg" xmlns:xlink="http://www.w3.org/1999/xlink" x="0px" y="0px"
	 viewBox="0 0 500 500" style="enable-background:new 0 0 500 500;" xml:space="preserve">
<g id="BACKGROUND">
	<rect id="BACKGROUND_14_" style="fill:#FFFFFF;" width="500" height="500"/>
</g>
<g id="OBJECTS">
	<g>
		<g>
			<path style="fill:#FFB7B5;" d="M468.256,384H31.744c-0.828,0-1.5-0.672-1.5-1.5s0.672-1.5,1.5-1.5h436.512
				c0.828,0,1.5,0.672,1.5,1.5S469.084,384,468.256,384z"/>
		</g>
	</g>
	<g>
		<g>
			<g>
				<path style="fill:#9BCD5A;" d="M55.217,194.665c-0.117,2.771-0.193,5.552-0.201,8.33c-0.012,0.699-0.011,1.392-0.002,2.096
					c0.018,5.582,0.291,11.168,0.911,16.693c0.069,0.69,0.159,1.385,0.252,2.071c0.672,5.271,1.691,10.482,3.141,15.585
					c0.199,0.701,0.408,1.405,0.627,2.111c1.235,3.98,2.748,7.903,4.581,11.72c0.922,1.924,1.924,3.811,2.991,5.674
					c0.42,0.734,0.843,1.46,1.287,2.19c0.447,0.75,0.915,1.505,1.386,2.251c2.617,4.125,5.393,8.183,8.332,12.165
					c0.501,0.696,1.016,1.387,1.535,2.068c3.374,4.474,6.918,8.854,10.641,13.116c0.607,0.712,1.227,1.417,1.851,2.114
					c3.579,4.028,7.306,7.959,11.142,11.782c2.644,2.632,5.362,5.216,8.145,7.748c0.798,0.738,1.609,1.469,2.433,2.194
					c3.34,2.967,6.772,5.869,10.291,8.688c1.44,1.154,13.007,8.956,18.525,13.042c1.368,1.023,2.366,1.818,2.736,2.217
					c0.12,0.123,0.175,0.212,0.158,0.255c5.98-12.703,8.087-26.315,7.674-39.779c-0.036-1.213-0.095-2.423-0.168-3.626
					c-0.19-2.929-0.482-5.853-0.883-8.755c-0.472-3.384-1.054-6.832-1.775-10.322c-0.211-0.989-0.422-1.977-0.653-2.971
					c-1.459-6.471-3.382-13.042-5.774-19.553c-0.385-1.058-0.787-2.13-1.216-3.189c-2.749-7.002-6.068-13.882-9.991-20.439
					c-0.582-0.981-1.177-1.956-1.789-2.915c-2.861-4.505-6.013-8.831-9.473-12.908c-0.6-0.729-1.221-1.435-1.841-2.14
					c-4.421-4.938-9.313-9.493-14.705-13.501c-0.677-0.501-1.357-0.992-2.041-1.475c-4.272-3.005-8.841-5.672-13.728-7.949
					c-0.723-0.35-1.467-0.677-2.221-1.006c-8.184-3.554-17.225-6.01-27.16-7.091c-0.289-0.03-0.592-0.054-0.885-0.046
					c-0.272,0.012-0.534,0.055-0.778,0.168c-0.529,0.246-0.835,0.753-1.063,1.23l-0.01,0.026
					C55.663,186.393,55.386,190.568,55.217,194.665z"/>
			</g>
			<path style="fill:#C5DE6F;" d="M143.087,336.307c-0.87-6.068-2.014-12.065-3.427-18.032c-0.115-0.485-0.255-0.971-0.369-1.466
				c-8.319-0.911-16.66-1.652-25.021-2.235c-0.83-0.723-1.633-1.456-2.435-2.199c9.017,0.584,17.984,1.368,26.928,2.332
				c-1.269-4.917-2.706-9.801-4.341-14.62c-12.938-5.199-27.415-6.645-41.873-7.239c-0.619-0.691-1.248-1.404-1.852-2.116
				c14.702,0.564,29.451,1.853,42.809,6.733c-1.848-5.223-3.881-10.392-6.123-15.497c-9.346-2.272-19.154-2.992-28.92-3.55
				c-6.128-0.363-12.258-0.621-18.411-0.794c-0.519-0.686-1.025-1.372-1.53-2.068c6.873,0.167,13.732,0.45,20.574,0.861
				c9.175,0.539,18.393,1.229,27.223,3.188c-1.87-4.16-3.872-8.274-5.98-12.35l-0.036-0.013c-5.336-1.334-10.854-2.029-16.401-2.597
				c-5.597-0.571-11.197-1.12-16.795-1.681c-6.096-0.617-12.194-1.224-18.304-1.831c-0.438-0.725-0.863-1.459-1.287-2.194
				c13.035,1.267,26.072,2.512,39.072,3.947c4.221,0.469,8.402,1.053,12.493,1.952c-2.884-5.425-5.979-10.775-9.224-16.037
				c-10.24-2.987-21.138-4.071-31.909-5.266c-6.003-0.655-11.994-1.31-18.007-1.987c-0.214-0.703-0.427-1.405-0.628-2.107
				c6.427,0.698,12.84,1.406,19.264,2.125c9.986,1.112,20.06,2.122,29.63,4.618c-3.975-6.278-8.191-12.441-12.622-18.508
				c-0.054,0.029-0.107,0.048-0.174,0.076c-1.26,0.372-3.176-0.15-4.459-0.29c-3.34-0.35-6.681-0.689-10.033-1.04
				c-6.605-0.686-13.211-1.371-19.816-2.057c-1.645-0.168-3.278-0.336-4.922-0.515c-0.102-0.686-0.19-1.383-0.255-2.067
				c6.88,0.71,13.746,1.43,20.614,2.14c3.165,0.331,6.344,0.651,9.508,0.992c1.595,0.166,3.178,0.331,4.762,0.486
				c0.71,0.079,1.408,0.146,2.105,0.224c0.312,0.027,0.753,0.038,1.072,0.108l0.22,0.054c-2.617-3.549-5.288-7.068-8.042-10.539
				c-1.091-1.353-2.195-2.697-3.298-4.051c-9.173-2.338-18.472-4.383-27.862-6.104c0.001-0.702,0.001-1.394,0.014-2.096
				c8.639,1.576,17.207,3.404,25.666,5.503c-6.654-8.042-13.636-15.899-20.881-23.567c-0.755-0.815-1.524-1.62-2.293-2.426
				c0.225-0.478,0.529-0.984,1.065-1.223c0.242-0.115,0.501-0.166,0.767-0.174c8.376,8.8,16.435,17.818,24.058,27.08
				c1.351-6.647,2.689-13.295,3.989-19.945c0.753,0.336,1.507,0.662,2.221,1.006c-1.379,7.071-2.796,14.141-4.237,21.199
				l-0.037,0.094c3.451,4.24,6.779,8.549,10.038,12.907c0.172-0.555,0.368-1.109,0.54-1.665c0.432-1.309,0.848-2.596,1.267-3.906
				c0.835-2.597,1.647-5.206,2.434-7.816c1.301-4.276,2.529-8.567,3.732-12.859c0.684,0.482,1.354,0.973,2.035,1.476
				c-2.503,9.058-5.218,18.095-8.289,27.049c4.056,5.537,7.962,11.163,11.654,16.884c0.486,0.748,0.945,1.506,1.418,2.253
				c3.429-10.874,6.747-21.774,9.929-32.692c0.616,0.712,1.234,1.414,1.836,2.147c-3.24,11.075-6.616,22.132-10.102,33.162
				c3.131,5.065,6.101,10.207,8.91,15.426c4.52-11.712,8.096-23.643,10.663-35.688c0.609,0.967,1.206,1.934,1.788,2.921
				c-2.711,11.985-6.381,23.857-11.006,35.501c1.939,3.717,3.786,7.461,5.528,11.242c0.217,0.479,0.421,0.958,0.639,1.427
				c6.06-8.825,11.044-18.13,14.828-27.729c0.434,1.054,0.828,2.128,1.223,3.191c-3.915,9.338-8.927,18.364-14.968,26.945
				c2.313,5.247,4.426,10.569,6.33,15.955c4.214-8.013,9.021-15.827,14.411-23.355c0.226,1.001,0.443,1.981,0.645,2.97
				c-5.265,7.545-9.943,15.333-14.018,23.343c1.511,4.504,2.9,9.065,4.098,13.649c0.078,0.281,0.132,0.55,0.212,0.82
				c3.827-6.362,7.943-12.614,12.371-18.733c0.074,1.206,0.135,2.412,0.17,3.627c-4.049,5.723-7.837,11.576-11.357,17.518
				c-0.096,0.155-0.276,0.284-0.49,0.379c1.732,7.133,3.061,14.353,4.018,21.627L143.087,336.307z"/>
		</g>
		<g>
			<g>
				<path style="fill:#B5C8DD;" d="M266.945,86.135c0.707,3.254,1.373,6.53,1.968,9.819c0.16,0.825,0.305,1.646,0.445,2.482
					c1.16,6.618,2.055,13.302,2.576,19.998c0.073,0.834,0.126,1.679,0.174,2.515c0.413,6.409,0.452,12.831,0.02,19.23
					c-0.059,0.879-0.128,1.764-0.207,2.654c-0.445,5.017-1.193,10.034-2.294,15.003c-0.553,2.504-1.199,4.984-1.916,7.452
					c-0.282,0.972-0.57,1.936-0.878,2.909c-0.307,0.998-0.635,2.007-0.968,3.006c-1.853,5.525-3.887,11.011-6.106,16.446
					c-0.375,0.948-0.765,1.891-1.161,2.825c-2.568,6.123-5.333,12.178-8.309,18.135c-0.482,0.991-0.979,1.979-1.481,2.956
					c-2.875,5.646-5.926,11.212-9.112,16.678c-2.197,3.764-4.481,7.488-6.844,11.167c-0.674,1.068-1.365,2.133-2.07,3.193
					c-2.851,4.33-5.811,8.606-8.879,12.805c-1.255,1.719-11.65,13.786-16.532,19.972c-1.208,1.546-2.08,2.731-2.381,3.295
					c-0.099,0.175-0.137,0.294-0.111,0.341c-8.908-13.588-13.975-29.2-16.388-45.252c-0.219-1.446-0.413-2.893-0.591-4.336
					c-0.42-3.516-0.733-7.052-0.929-10.588c-0.223-4.124-0.345-8.35-0.331-12.661c0.011-1.223,0.022-2.446,0.053-3.679
					c0.153-8.023,0.768-16.277,1.884-24.573c0.177-1.348,0.369-2.715,0.592-4.074c1.384-8.966,3.387-17.927,6.086-26.652
					c0.398-1.304,0.812-2.604,1.247-3.891c2.027-6.035,4.396-11.93,7.137-17.604c0.471-1.01,0.968-1.998,1.465-2.985
					c3.561-6.929,7.692-13.52,12.458-19.584c0.599-0.758,1.204-1.507,1.813-2.246c3.813-4.603,8.007-8.878,12.613-12.768
					c0.679-0.591,1.384-1.16,2.1-1.733c7.77-6.209,16.663-11.325,26.779-15.032c0.295-0.106,0.605-0.208,0.911-0.271
					c0.286-0.052,0.567-0.065,0.845,0.01c0.603,0.162,1.028,0.688,1.366,1.198l0.016,0.028
					C264.734,76.444,265.905,81.323,266.945,86.135z"/>
			</g>
			<path style="fill:#8CADD1;" d="M205.37,275.387c-0.375-7.401-0.45-14.784-0.239-22.199c0.018-0.602,0.061-1.212,0.075-1.827
				c8.468-3.11,16.995-6.025,25.576-8.756c0.711-1.059,1.393-2.123,2.071-3.199c-9.264,2.894-18.434,6.011-27.542,9.336
				c0.283-6.135,0.748-12.271,1.432-18.379c12.372-9.318,27.138-14.565,42.065-18.798c0.499-0.97,1.003-1.968,1.482-2.959
				c-15.187,4.257-30.269,9.385-43.146,18.427c0.822-6.639,1.846-13.259,3.103-19.854c9.25-4.973,19.309-8.22,29.358-11.266
				c6.303-1.927,12.63-3.728,18.999-5.435c0.395-0.939,0.778-1.875,1.156-2.823c-7.12,1.876-14.201,3.886-21.237,6.042
				c-9.438,2.878-18.889,5.947-27.668,10.422c1.069-5.385,2.285-10.747,3.618-16.091l0.035-0.024
				c5.273-2.883,10.872-5.053,16.526-7.081c5.707-2.042,11.42-4.061,17.13-6.091c6.216-2.219,12.436-4.427,18.669-6.638
				c0.303-0.965,0.59-1.939,0.876-2.913c-13.302,4.683-26.612,9.341-39.843,14.214c-4.295,1.586-8.525,3.299-12.594,5.363
				c1.857-7.131,3.949-14.225,6.217-21.251c10.029-6.039,21.146-9.984,32.107-14.028c6.111-2.242,12.21-4.479,18.326-6.749
				c0.074-0.885,0.148-1.769,0.21-2.65c-6.544,2.396-13.07,4.8-19.607,7.22c-10.161,3.755-20.436,7.412-29.872,12.705
				c2.812-8.408,5.901-16.738,9.233-25.008c0.063,0.021,0.122,0.03,0.197,0.048c1.39,0.134,3.274-0.953,4.58-1.432
				c3.403-1.23,6.809-2.448,10.225-3.681c6.732-2.425,13.464-4.85,20.196-7.274c1.677-0.601,3.342-1.199,5.016-1.812
				c-0.039-0.838-0.094-1.684-0.171-2.511c-7.012,2.521-14.009,5.05-21.008,7.567c-3.226,1.164-6.468,2.32-9.689,3.497
				c-1.626,0.586-3.238,1.168-4.855,1.738c-0.723,0.266-1.436,0.517-2.145,0.779c-0.32,0.107-0.776,0.229-1.094,0.389l-0.218,0.118
				c1.975-4.843,4.013-9.665,6.147-14.449c0.85-1.87,1.716-3.731,2.578-5.605c9.056-5.008,18.305-9.702,27.718-14.033
				c-0.149-0.832-0.295-1.651-0.457-2.48c-8.661,3.976-17.195,8.234-25.558,12.785c5.23-11.152,10.839-22.164,16.763-33.016
				c0.614-1.15,1.244-2.292,1.875-3.433c-0.335-0.511-0.759-1.037-1.367-1.189c-0.276-0.078-0.557-0.075-0.835-0.019
				c-6.863,12.47-13.348,25.121-19.329,37.954c-2.809-7.545-5.606-15.094-8.363-22.654c-0.713,0.582-1.429,1.152-2.099,1.734
				c2.929,8.041,5.896,16.07,8.886,24.079l0.059,0.102c-2.697,5.866-5.253,11.783-7.726,17.742
				c-0.296-0.616-0.618-1.225-0.914-1.841c-0.726-1.445-1.431-2.869-2.144-4.317c-1.418-2.873-2.814-5.766-4.184-8.666
				c-2.258-4.748-4.442-9.532-6.6-14.323c-0.61,0.737-1.204,1.483-1.807,2.245c4.518,10.12,9.253,20.162,14.34,30.021
				c-3.054,7.55-5.932,15.168-8.568,22.847c-0.348,1.005-0.666,2.015-1,3.016c-5.865-12.045-11.621-24.148-17.239-36.306
				c-0.492,0.994-0.987,1.977-1.458,2.992c5.711,12.329,11.56,24.604,17.518,36.82c-2.191,6.765-4.197,13.581-6.02,20.449
				c-7.179-12.772-13.42-26.033-18.636-39.676c-0.43,1.295-0.847,2.586-1.244,3.897c5.353,13.536,11.679,26.706,18.952,39.37
				c-1.234,4.876-2.367,9.763-3.381,14.668c-0.125,0.621-0.236,1.237-0.364,1.846c-8.172-8.975-15.325-18.782-21.292-29.23
				c-0.229,1.355-0.413,2.723-0.6,4.079c6.047,10.106,13.171,19.577,21.272,28.267c-1.3,6.78-2.377,13.601-3.222,20.446
				c-6.079-8.465-12.733-16.547-19.933-24.15c-0.024,1.241-0.043,2.454-0.044,3.676c7.075,7.653,13.589,15.737,19.522,24.232
				c-0.622,5.705-1.106,11.448-1.384,17.171c-0.022,0.351-0.022,0.683-0.047,1.022c-5.327-6.603-10.933-13.004-16.834-19.172
				c0.178,1.447,0.368,2.891,0.589,4.339c5.424,5.792,10.602,11.801,15.522,17.98c0.132,0.16,0.347,0.269,0.59,0.33
				c-0.297,8.873-0.157,17.751,0.383,26.602L205.37,275.387z"/>
		</g>
		<g>
			<g>
				<path style="fill:#B5C8DD;" d="M97.735,347.577c2.248,3.229,4.045,6.917,6.458,10.044c7.46,9.666,20.941,13.42,32.963,11.288
					c7.824-1.387,15.1-4.926,22.799-6.892c7.094-1.812,14.532-2.267,21.795-1.333c-4.392-0.565-8.745-11.184-10.803-14.408
					c-3.786-5.927-8.271-11.701-13.796-16.105c-6.459-5.148-12.938-12.351-20.746-15.48c-8.059-3.229-16.613-1.977-24.198-7.302
					c-5.277-3.704-8.946-9.259-13.768-13.539c-8.028-7.126-19.359-10.177-29.92-8.566c-4.918,0.75-8.898,3.416-13.614,4.301
					c-5.95,1.116-12.173-0.793-18.186-0.012c-8.083,1.05-8.332,6.152-1.364,10.529c3.175,1.995,6.896,3.318,9.339,6.163
					c4.532,5.278,2.913,13.431,5.585,19.853c3.319,7.977,12.636,11.761,21.252,12.401c7.196,0.534,15.056-0.37,21.03,3.678
					C94.66,343.618,96.291,345.502,97.735,347.577z"/>
			</g>
			<g>
				<path style="fill:#8CADD1;" d="M58.568,303.494c9.119,2.069,18.154,4.535,27.074,7.396c8.921,2.861,17.727,6.114,26.394,9.745
					c8.65,3.624,17.159,7.628,25.505,11.988c8.361,4.368,16.555,9.102,24.555,14.188c8,5.086,15.806,10.526,23.39,16.306
					c0.961,0.733,1.919,1.471,2.873,2.214c0.814,0.633-0.059,2.087-0.877,1.45c-7.495-5.835-15.207-11.34-23.119-16.496
					c-7.948-5.179-16.095-10.007-24.412-14.471c-8.294-4.451-16.76-8.534-25.368-12.243c-8.592-3.702-17.327-7.031-26.178-9.973
					c-8.892-2.956-17.901-5.523-27-7.687c-1.111-0.264-2.223-0.522-3.336-0.775C57.082,304.913,57.588,303.272,58.568,303.494
					L58.568,303.494z"/>
			</g>
		</g>
		<g>
			<g>
				<g>
					<g>
						<g>
							<path style="fill:#FFB7B5;" d="M82.534,83.64c0.386-0.051,1.432,6.7,4.122,17.643c1.324,5.477,3.05,12.002,4.906,19.353
								c1.899,7.353,3.553,15.62,5.178,24.367l0.007-0.002l0.001,0.006c0.328,1.763,0.651,3.495,0.974,5.228
								c0.332,1.729,0.664,3.456,1.002,5.216c0.001,0.006,0.001,0.006,0.001,0.006l-0.007,0.002
								c3.522,17.42,6.902,32.791,9.921,43.633c2.969,10.864,5.371,17.268,4.985,17.416c-0.144,0.056-0.911-1.483-2.081-4.389
								c-1.174-2.903-2.729-7.181-4.385-12.597c-3.373-10.827-6.94-26.192-10.524-43.655l-0.009,0.002c0,0,0,0-0.001-0.006
								c-0.338-1.765-0.669-3.498-1-5.233c-0.325-1.735-0.649-3.467-0.98-5.232l-0.001-0.006l0.009-0.002
								c-1.6-8.757-3.181-16.956-4.977-24.294c-1.758-7.356-3.362-13.934-4.523-19.474c-1.169-5.538-1.922-10.028-2.312-13.136
								C82.448,85.38,82.382,83.66,82.534,83.64z"/>
						</g>
					</g>
					<g>
						<g>
							<path style="fill:#FFB7B5;" d="M74.513,115.946c0.266-0.231,1.888,1.218,4.289,3.87c2.385,2.661,5.557,6.532,8.677,11.261
								l0.006-0.004l0.001,0.001c0.31,0.48,0.615,0.95,0.92,1.421c0.294,0.479,0.588,0.956,0.887,1.443l0.001,0.002l-0.007,0.004
								c2.945,4.847,4.974,9.481,6.103,12.898c1.114,3.43,1.402,5.608,1.079,5.695c-0.344,0.096-1.113-1.918-2.519-5.143
								c-1.423-3.218-3.554-7.633-6.478-12.347l-0.008,0.005l-0.001-0.002c-0.291-0.477-0.577-0.945-0.863-1.414
								c-0.3-0.461-0.6-0.921-0.905-1.39l-0.001-0.002l0.008-0.005c-3.013-4.661-5.994-8.591-8.093-11.447
								C75.494,117.946,74.257,116.168,74.513,115.946z"/>
						</g>
					</g>
					<g>
						<g>
							<path style="fill:#FFB7B5;" d="M101.761,115.863c0.744,0.131-0.783,9.738-1.691,22.329l0.008,0.001l0,0.002
								c-0.049,0.634-0.096,1.257-0.144,1.881c-0.038,0.624-0.076,1.247-0.116,1.882l0,0.002l-0.007-0.001
								c-0.827,12.598-0.63,22.322-1.385,22.35c-0.627,0.034-1.465-9.751-0.734-22.479l-0.009-0.001l0-0.002
								c0.041-0.641,0.081-1.269,0.122-1.899c0.046-0.629,0.093-1.258,0.14-1.898l0-0.002l0.009,0.001
								C98.973,125.323,101.145,115.744,101.761,115.863z"/>
						</g>
					</g>
					<g>
						<g>
							<g>
								<path style="fill:#C5DE6F;" d="M110.946,155.643c0.725,0.247-1.639,7.431-3.157,17.09l0.007,0.001l0,0.002
									c-0.079,0.486-0.157,0.963-0.234,1.441c-0.066,0.48-0.131,0.958-0.198,1.446l0,0.002l-0.007-0.001
									c-1.377,9.681-1.22,17.241-1.986,17.265c-0.615,0.045-1.421-7.641-0.119-17.55l-0.009-0.001l0-0.002
									c0.07-0.497,0.139-0.986,0.207-1.475c0.077-0.488,0.155-0.975,0.234-1.471l0-0.002l0.009,0.001
									C107.35,162.535,110.371,155.42,110.946,155.643z"/>
							</g>
						</g>
					</g>
					<g>
						<path style="fill:#FFB7B5;" d="M79.355,160.709c0.137-0.308,1.87,0.147,4.493,1.471c2.602,1.34,6.072,3.603,9.418,6.826
							l0.005-0.005l0.001,0.001c0.334,0.327,0.662,0.649,0.991,0.971c0.315,0.335,0.629,0.669,0.95,1.01l0.001,0.001l-0.006,0.005
							c3.153,3.411,5.344,6.928,6.63,9.557c1.27,2.649,1.689,4.391,1.378,4.522c-0.325,0.141-1.2-1.375-2.724-3.769
							c-1.542-2.379-3.786-5.636-6.842-8.867l-0.007,0.006l-0.001-0.001c-0.305-0.327-0.605-0.649-0.905-0.971
							c-0.316-0.307-0.631-0.613-0.952-0.925l-0.001-0.001l0.007-0.007c-3.167-3.122-6.377-5.432-8.724-7.024
							C80.705,161.937,79.208,161.031,79.355,160.709z"/>
					</g>
				</g>
			</g>
			<g>
				<g>
					<path style="fill:#FFE551;" d="M110.645,141.348c-0.295,0.153-0.579,0.321-0.852,0.502c-2.07,1.373-3.591,3.494-4.435,5.83
						c-1.453,4.022-0.76,8.937,2.308,11.916c0.63,0.611,1.453,0.95,2.158,1.438c0.941,0.652,1.809,1.179,2.958,1.394
						c1.914,0.357,3.893-0.242,5.609-1.162c1.436-0.77,2.761-1.778,3.768-3.06c1.996-2.542,2.578-5.973,2.233-9.187
						c-0.218-2.038-0.803-4.082-2.02-5.731C119.757,139.744,114.41,139.388,110.645,141.348z"/>
				</g>
				<g>
					<path style="fill:#FBAD18;" d="M117.14,139.432c-0.035,0.116-0.063,0.233-0.084,0.351c-0.164,0.892,0.015,1.842,0.425,2.677
						c0.706,1.436,2.203,2.561,3.792,2.567c0.326,0.001,0.629-0.12,0.941-0.17c0.417-0.067,0.782-0.149,1.135-0.386
						c0.588-0.394,0.936-1.058,1.131-1.74c0.163-0.57,0.233-1.176,0.147-1.772c-0.169-1.183-0.941-2.24-1.892-3.004
						c-0.603-0.484-1.302-0.876-2.058-1.002C119.053,136.681,117.583,137.951,117.14,139.432z"/>
				</g>
			</g>
			<g>
				<g>
					<path style="fill:#FFE551;" d="M75.968,147.37c0.331-0.03,0.661-0.043,0.988-0.038c2.483,0.039,4.909,1.004,6.88,2.515
						c3.394,2.602,5.463,7.113,4.488,11.277c-0.2,0.855-0.711,1.584-1.041,2.376c-0.44,1.057-0.886,1.969-1.738,2.77
						c-1.418,1.334-3.409,1.897-5.35,2.049c-1.624,0.127-3.284-0.007-4.823-0.542c-3.052-1.063-5.394-3.637-6.838-6.528
						c-0.916-1.834-1.527-3.87-1.392-5.915C67.431,150.937,71.741,147.752,75.968,147.37z"/>
				</g>
				<g>
					<path style="fill:#FBAD18;" d="M69.465,149.263c0.092,0.079,0.179,0.162,0.26,0.249c0.619,0.663,0.982,1.559,1.087,2.482
						c0.181,1.59-0.473,3.346-1.807,4.208c-0.274,0.177-0.594,0.239-0.884,0.365c-0.387,0.168-0.739,0.296-1.164,0.287
						c-0.708-0.014-1.359-0.385-1.891-0.854c-0.445-0.393-0.831-0.864-1.081-1.413c-0.496-1.087-0.417-2.394-0.028-3.549
						c0.247-0.733,0.624-1.44,1.192-1.954C66.371,147.979,68.294,148.255,69.465,149.263z"/>
				</g>
			</g>
			<g>
				<g>
					<path style="fill:#FFE551;" d="M97.74,105.675c-0.265,0.181-0.519,0.372-0.758,0.573c-1.816,1.524-2.971,3.59-3.424,5.723
						c-0.78,3.672,0.697,7.736,4.201,9.743c0.719,0.412,1.585,0.558,2.358,0.854c1.032,0.394,1.972,0.693,3.139,0.678
						c1.943-0.025,3.795-0.875,5.336-1.952c1.29-0.901,2.432-1.987,3.215-3.25c1.554-2.506,1.573-5.526,0.714-8.201
						c-0.545-1.697-1.452-3.335-2.917-4.53C106.454,102.745,101.131,103.361,97.74,105.675z"/>
				</g>
				<g>
					<path style="fill:#FBAD18;" d="M103.827,102.929c-0.015,0.104-0.024,0.209-0.026,0.313c-0.017,0.787,0.313,1.565,0.851,2.205
						c0.928,1.101,2.584,1.801,4.15,1.533c0.321-0.055,0.6-0.21,0.899-0.306c0.4-0.129,0.746-0.261,1.055-0.524
						c0.515-0.436,0.751-1.061,0.832-1.674c0.068-0.514,0.039-1.041-0.141-1.533c-0.358-0.978-1.289-1.745-2.349-2.231
						c-0.672-0.308-1.424-0.522-2.189-0.5C105.265,100.26,104.023,101.593,103.827,102.929z"/>
				</g>
			</g>
			<g>
				<g>
					<path style="fill:#FFE551;" d="M73.166,97.157c0.339,0.172,0.666,0.36,0.98,0.562c2.378,1.531,4.108,3.856,5.051,6.398
						c1.623,4.376,0.744,9.665-2.86,12.808c-0.739,0.645-1.699,0.991-2.524,1.502c-1.101,0.682-2.115,1.23-3.451,1.435
						c-2.224,0.34-4.51-0.353-6.485-1.386c-1.653-0.865-3.174-1.984-4.32-3.391c-2.274-2.791-2.896-6.509-2.448-9.969
						c0.285-2.195,0.994-4.387,2.431-6.139C62.627,95.211,68.831,94.953,73.166,97.157z"/>
				</g>
				<g>
					<path style="fill:#FBAD18;" d="M65.665,94.936c0.038,0.126,0.069,0.253,0.092,0.381c0.176,0.967-0.046,1.988-0.534,2.879
						c-0.841,1.534-2.594,2.713-4.436,2.682c-0.378-0.007-0.727-0.144-1.088-0.206c-0.482-0.082-0.904-0.18-1.31-0.443
						c-0.676-0.439-1.069-1.164-1.284-1.905c-0.18-0.62-0.252-1.275-0.144-1.917c0.215-1.273,1.125-2.396,2.24-3.197
						c0.707-0.508,1.523-0.915,2.401-1.033C63.49,91.921,65.175,93.327,65.665,94.936z"/>
				</g>
			</g>
			<g>
				<g>
					<path style="fill:#FFE551;" d="M72.327,75.705c-0.061,0.315-0.106,0.63-0.134,0.941c-0.215,2.361,0.422,4.64,1.604,6.473
						c2.035,3.155,5.946,4.997,9.847,3.952c0.8-0.214,1.518-0.721,2.274-1.056c1.009-0.448,1.887-0.898,2.705-1.731
						c1.361-1.386,2.076-3.295,2.41-5.146c0.28-1.549,0.325-3.123-0.01-4.572c-0.663-2.873-2.779-5.028-5.274-6.321
						c-1.582-0.82-3.381-1.343-5.262-1.158C76.444,67.486,73.102,71.674,72.327,75.705z"/>
				</g>
				<g>
					<path style="fill:#FBAD18;" d="M74.71,69.468c0.063,0.085,0.13,0.166,0.201,0.241c0.543,0.57,1.325,0.89,2.158,0.964
						c1.434,0.127,3.103-0.544,4.025-1.837c0.189-0.265,0.278-0.571,0.422-0.851c0.193-0.373,0.345-0.711,0.38-1.115
						c0.058-0.673-0.215-1.282-0.59-1.774c-0.314-0.412-0.706-0.766-1.181-0.988c-0.943-0.441-2.144-0.33-3.239,0.073
						c-0.694,0.255-1.378,0.634-1.905,1.188C73.849,66.56,73.908,68.382,74.71,69.468z"/>
				</g>
			</g>
		</g>
	</g>
	<g>
		<g>
			<g>
				<path style="fill:#C5DE6F;" d="M399.053,95.914c0.475,3.073,0.911,6.163,1.28,9.261c0.103,0.778,0.191,1.551,0.275,2.338
					c0.707,6.232,1.164,12.511,1.272,18.78c0.021,0.782,0.023,1.572,0.021,2.353c0.023,5.995-0.302,11.981-1.067,17.92
					c-0.105,0.816-0.219,1.636-0.343,2.461c-0.698,4.65-1.677,9.282-2.984,13.851c-0.657,2.302-1.398,4.576-2.206,6.836
					c-0.318,0.89-0.64,1.771-0.982,2.661c-0.343,0.913-0.705,1.834-1.071,2.746c-2.039,5.044-4.243,10.041-6.618,14.98
					c-0.403,0.862-0.82,1.719-1.241,2.567c-2.739,5.561-5.656,11.047-8.766,16.43c-0.505,0.897-1.024,1.789-1.547,2.671
					c-2.998,5.099-6.155,10.113-9.432,15.027c-2.259,3.383-4.598,6.725-7.007,10.02c-0.689,0.958-1.392,1.91-2.109,2.859
					c-2.901,3.874-5.9,7.692-8.996,11.431c-1.267,1.531-11.634,12.188-16.532,17.678c-1.213,1.373-2.092,2.427-2.404,2.936
					c-0.102,0.158-0.145,0.266-0.122,0.312c-7.534-13.165-11.374-27.998-12.717-43.091c-0.123-1.36-0.221-2.719-0.306-4.074
					c-0.193-3.3-0.286-6.612-0.268-9.919c0.025-3.856,0.15-7.801,0.406-11.817c0.079-1.139,0.158-2.278,0.257-3.425
					c0.596-7.467,1.634-15.124,3.142-22.792c0.241-1.246,0.497-2.509,0.782-3.763c1.795-8.277,4.167-16.514,7.175-24.492
					c0.445-1.193,0.904-2.381,1.381-3.555c2.23-5.509,4.769-10.869,7.644-16.001c0.496-0.915,1.015-1.807,1.534-2.699
					c3.709-6.256,7.93-12.164,12.714-17.546c0.601-0.673,1.207-1.336,1.816-1.991c3.813-4.074,7.962-7.821,12.474-11.186
					c0.666-0.513,1.355-1.003,2.055-1.497c7.59-5.347,16.166-9.612,25.801-12.496c0.281-0.082,0.576-0.16,0.864-0.201
					c0.269-0.033,0.532-0.029,0.787,0.057c0.552,0.185,0.919,0.699,1.206,1.193l0.013,0.027
					C397.539,86.759,398.354,91.371,399.053,95.914z"/>
			</g>
			<path style="fill:#9BCD5A;" d="M330.996,268.789c0.068-6.917,0.414-13.802,1.029-20.699c0.05-0.56,0.125-1.126,0.173-1.698
				c8.067-2.42,16.177-4.655,24.327-6.716c0.722-0.947,1.418-1.9,2.11-2.864c-8.796,2.173-17.517,4.561-26.191,7.146
				c0.609-5.701,1.389-11.393,2.372-17.045c12.054-7.985,26.109-12.041,40.258-15.143c0.519-0.876,1.046-1.778,1.548-2.674
				c-14.392,3.11-28.736,7.037-41.244,14.737c1.14-6.14,2.469-12.251,4.012-18.326c8.9-4.112,18.456-6.57,27.992-8.841
				c5.983-1.44,11.98-2.761,18.011-3.992c0.421-0.853,0.831-1.703,1.237-2.565c-6.741,1.346-13.452,2.82-20.13,4.432
				c-8.957,2.15-17.937,4.475-26.37,8.15c1.3-4.958,2.735-9.886,4.28-14.79l0.034-0.02c5.076-2.389,10.415-4.095,15.799-5.665
				c5.433-1.581,10.871-3.139,16.306-4.709c5.918-1.718,11.838-3.423,17.771-5.132c0.337-0.883,0.659-1.774,0.981-2.665
				c-12.66,3.613-25.325,7.202-37.929,10.997c-4.092,1.236-8.13,2.593-12.038,4.286c2.132-6.54,4.483-13.032,6.992-19.451
				c9.686-5.061,20.268-8.11,30.71-11.26c5.821-1.744,11.63-3.485,17.458-5.255c0.119-0.82,0.238-1.64,0.345-2.457
				c-6.233,1.863-12.45,3.735-18.678,5.622c-9.68,2.926-19.461,5.753-28.552,10.153c3.095-7.676,6.443-15.264,10.015-22.782
				c0.057,0.023,0.111,0.035,0.181,0.056c1.288,0.203,3.105-0.703,4.349-1.075c3.24-0.954,6.483-1.897,9.736-2.854
				c6.41-1.88,12.82-3.759,19.229-5.639c1.597-0.466,3.182-0.928,4.776-1.405c0.011-0.783,0.008-1.575-0.018-2.349
				c-6.677,1.953-13.339,3.915-20.003,5.866c-3.071,0.903-6.158,1.797-9.226,2.712c-1.548,0.454-3.083,0.906-4.622,1.346
				c-0.688,0.208-1.367,0.4-2.043,0.605c-0.304,0.082-0.736,0.17-1.041,0.301l-0.21,0.097c2.114-4.402,4.285-8.78,6.543-13.117
				c0.897-1.694,1.809-3.38,2.719-5.077c8.722-4.156,17.605-8.008,26.62-11.512c-0.092-0.784-0.181-1.556-0.286-2.336
				c-8.295,3.216-16.488,6.702-24.537,10.472c5.503-10.097,11.351-20.041,17.483-29.82c0.637-1.037,1.289-2.065,1.941-3.093
				c-0.284-0.495-0.649-1.009-1.206-1.185c-0.253-0.088-0.515-0.101-0.777-0.065c-7.099,11.233-13.856,22.655-20.153,34.276
				c-2.192-7.189-4.372-14.381-6.515-21.582c-0.697,0.502-1.397,0.993-2.054,1.498c2.276,7.658,4.588,15.307,6.922,22.939
				l0.049,0.098c-2.845,5.314-5.56,10.683-8.201,16.096c-0.241-0.591-0.507-1.176-0.747-1.767c-0.595-1.387-1.172-2.754-1.754-4.144
				c-1.159-2.757-2.297-5.531-3.409-8.311c-1.836-4.552-3.601-9.133-5.342-13.719c-0.61,0.653-1.205,1.314-1.81,1.99
				c3.639,9.685,7.484,19.31,11.669,28.784c-3.272,6.863-6.384,13.8-9.273,20.806c-0.38,0.917-0.734,1.84-1.102,2.754
				c-4.786-11.555-9.466-23.158-14.015-34.803c-0.514,0.899-1.031,1.786-1.527,2.705c4.626,11.811,9.384,23.579,14.246,35.299
				c-2.423,6.18-4.677,12.419-6.763,18.716c-5.968-12.306-11.036-25.015-15.126-38.022c-0.474,1.182-0.935,2.362-1.379,3.561
				c4.224,12.915,9.376,25.544,15.439,37.755c-1.425,4.474-2.756,8.964-3.979,13.477c-0.151,0.571-0.29,1.14-0.444,1.7
				c-7.108-8.824-13.221-18.366-18.191-28.439c-0.29,1.25-0.538,2.514-0.789,3.767c5.065,9.759,11.168,18.985,18.227,27.54
				c-1.594,6.245-2.982,12.54-4.156,18.871c-5.187-8.23-10.931-16.138-17.212-23.629c-0.093,1.156-0.178,2.285-0.249,3.423
				c6.16,7.531,11.774,15.431,16.824,23.681c-0.901,5.281-1.676,10.605-2.259,15.922c-0.04,0.326-0.059,0.635-0.102,0.95
				c-4.592-6.453-9.454-12.735-14.604-18.815c0.084,1.358,0.18,2.714,0.304,4.076c4.727,5.703,9.214,11.595,13.45,17.63
				c0.114,0.156,0.308,0.27,0.532,0.341c-0.777,8.252-1.148,16.531-1.144,24.81L330.996,268.789z"/>
		</g>
		<g>
			<g>
				<path style="fill:#B5C8DD;" d="M432.946,277.284c-1.06,3.789-1.542,7.864-2.791,11.61
					c-3.861,11.584-15.354,19.567-27.408,21.512c-7.845,1.266-15.88,0.32-23.797,0.999c-7.295,0.625-14.469,2.645-21.018,5.917
					c3.961-1.979,4.574-13.44,5.457-17.161c1.623-6.843,3.957-13.772,7.724-19.75c4.403-6.988,8.15-15.923,14.492-21.448
					c6.546-5.703,15.036-7.337,20.445-14.862c3.763-5.236,5.399-11.688,8.543-17.317c5.234-9.372,14.928-15.984,25.431-17.94
					c4.891-0.911,9.526,0.296,14.271-0.422c5.986-0.905,11.233-4.757,17.168-6c7.978-1.67,9.893,3.065,4.755,9.493
					c-2.341,2.929-5.419,5.404-6.789,8.895c-2.541,6.476,1.672,13.641,1.263,20.585c-0.508,8.625-8.059,15.265-15.984,18.707
					c-6.619,2.874-14.338,4.608-18.646,10.397C434.546,272.534,433.627,274.85,432.946,277.284z"/>
			</g>
			<g>
				<path style="fill:#8CADD1;" d="M455.414,222.763c-7.93,4.957-15.648,10.26-23.129,15.899
					c-7.481,5.639-14.726,11.61-21.713,17.891c-6.975,6.271-13.69,12.853-20.135,19.718c-6.457,6.877-12.635,14.045-18.514,21.483
					c-5.879,7.437-11.458,15.144-16.717,23.098c-0.667,1.008-1.328,2.021-1.984,3.037c-0.56,0.866,0.743,1.951,1.305,1.08
					c5.156-7.977,10.625-15.715,16.398-23.188c5.8-7.508,11.902-14.749,18.285-21.702c6.365-6.934,13.015-13.576,19.922-19.913
					c6.894-6.325,14.046-12.344,21.434-18.037c7.423-5.719,15.085-11.109,22.963-16.149c0.962-0.615,1.927-1.225,2.895-1.83
					C457.284,223.613,456.266,222.23,455.414,222.763L455.414,222.763z"/>
			</g>
		</g>
		<g>
			<g>
				<g>
					<g>
						<g>
							<path style="fill:#FFB7B5;" d="M443.179,107.44c-0.309-0.152-3.091,5.21-8.435,13.62c-2.655,4.216-5.944,9.196-9.574,14.832
								c-3.667,5.625-7.386,12.086-11.216,18.957l-0.006-0.003l-0.003,0.005c-0.773,1.385-1.532,2.744-2.292,4.106
								c-0.767,1.355-1.532,2.709-2.312,4.088c-0.003,0.005-0.003,0.005-0.003,0.005l0.006,0.003
								c-7.869,13.602-15.039,25.529-20.629,33.762c-5.555,8.265-9.375,12.954-9.094,13.187c0.105,0.087,1.182-0.986,2.982-3.09
								c1.803-2.101,4.314-5.247,7.231-9.318c5.882-8.121,13.208-19.988,21.141-33.61l0.007,0.004c0,0,0,0,0.003-0.005
								c0.781-1.384,1.548-2.742,2.315-4.103c0.762-1.362,1.523-2.722,2.298-4.107l0.003-0.005l-0.007-0.004
								c3.813-6.886,7.451-13.31,11.028-18.952c3.55-5.668,6.75-10.727,9.287-15.041c2.543-4.311,4.441-7.86,5.645-10.355
								C442.76,108.923,443.3,107.5,443.179,107.44z"/>
						</g>
					</g>
					<g>
						<g>
							<path style="fill:#FFB7B5;" d="M440.781,136.775c-0.158-0.269-1.926,0.488-4.686,2.032c-2.749,1.557-6.5,3.905-10.449,6.987
								l-0.004-0.005l-0.001,0.001c-0.395,0.314-0.783,0.622-1.172,0.931c-0.382,0.318-0.763,0.636-1.151,0.959l-0.001,0.001
								l0.004,0.005c-3.836,3.23-6.844,6.541-8.754,9.085c-1.902,2.56-2.758,4.304-2.512,4.468c0.261,0.178,1.474-1.293,3.563-3.599
								c2.101-2.295,5.133-5.393,8.913-8.518l0.005,0.006l0.001-0.001c0.379-0.318,0.75-0.629,1.122-0.941
								c0.382-0.301,0.763-0.602,1.151-0.909l0.001-0.001l-0.005-0.006c3.841-3.055,7.448-5.507,10.012-7.308
								C439.394,138.174,440.933,137.034,440.781,136.775z"/>
						</g>
					</g>
					<g>
						<g>
							<path style="fill:#FFB7B5;" d="M417.972,129.015c-0.66-0.101-2.092,8.381-4.885,19.188l-0.007-0.002l0,0.002
								c-0.139,0.545-0.274,1.08-0.411,1.617c-0.144,0.534-0.288,1.067-0.435,1.61l0,0.002l0.007,0.002
								c-2.863,10.79-5.773,18.883-5.147,19.119c0.515,0.205,3.979-7.758,6.96-18.629l0.008,0.002l0-0.002
								c0.147-0.548,0.29-1.087,0.434-1.625c0.139-0.54,0.277-1.08,0.419-1.63l0-0.002l-0.008-0.002
								C417.638,137.728,418.522,129.089,417.972,129.015z"/>
						</g>
					</g>
					<g>
						<g>
							<path style="fill:#FFB7B5;" d="M399.047,159.756c-0.677,0.002-0.724,6.689-2.178,15.212l-0.007-0.001l0,0.001
								c-0.071,0.43-0.141,0.851-0.21,1.274c-0.081,0.421-0.161,0.84-0.242,1.268l0,0.002l0.006,0.001
								c-1.579,8.501-3.844,14.792-3.21,15.028c0.503,0.211,3.347-6.002,5.053-14.673l0.008,0.002l0-0.002
								c0.082-0.436,0.162-0.865,0.243-1.294c0.073-0.43,0.145-0.86,0.219-1.298l0-0.002l-0.008-0.001
								C400.115,166.546,399.592,159.731,399.047,159.756z"/>
						</g>
					</g>
					<g>
						<path style="fill:#FFB7B5;" d="M424.089,172.918c-0.028-0.296-1.609-0.405-4.18-0.035c-2.558,0.388-6.105,1.305-9.818,3.061
							l-0.003-0.006l-0.001,0.001c-0.372,0.18-0.738,0.357-1.104,0.534c-0.358,0.192-0.716,0.383-1.081,0.578l-0.001,0.001
							l0.003,0.006c-3.605,1.968-6.434,4.297-8.253,6.137c-1.812,1.862-2.654,3.203-2.431,3.4c0.233,0.21,1.393-0.813,3.346-2.389
							c1.964-1.559,4.764-3.654,8.236-5.499l0.004,0.007l0.001-0.001c0.348-0.188,0.69-0.373,1.033-0.558
							c0.351-0.168,0.702-0.336,1.059-0.507l0.001-0.001l-0.004-0.007c3.535-1.722,6.876-2.752,9.293-3.423
							C422.611,173.566,424.121,173.23,424.089,172.918z"/>
					</g>
				</g>
			</g>
			<g>
				<g>
					<path style="fill:#FFE551;" d="M403.334,147.862c0.203,0.212,0.395,0.432,0.573,0.661c1.347,1.735,2.022,3.941,2.07,6.137
						c0.082,3.781-1.885,7.703-5.298,9.333c-0.7,0.334-1.486,0.385-2.215,0.596c-0.972,0.281-1.848,0.477-2.872,0.333
						c-1.704-0.241-3.194-1.302-4.372-2.557c-0.986-1.05-1.812-2.269-2.293-3.627c-0.955-2.693-0.474-5.733,0.722-8.328
						c0.758-1.646,1.825-3.193,3.311-4.232C396.152,143.946,400.732,145.157,403.334,147.862z"/>
				</g>
				<g>
					<path style="fill:#FBAD18;" d="M398.432,144.423c-0.004,0.107-0.013,0.213-0.028,0.318c-0.115,0.794-0.532,1.539-1.112,2.123
						c-0.997,1.004-2.569,1.524-3.902,1.08c-0.273-0.091-0.493-0.278-0.741-0.408c-0.33-0.174-0.613-0.346-0.842-0.644
						c-0.382-0.496-0.486-1.151-0.456-1.777c0.025-0.524,0.137-1.051,0.377-1.527c0.476-0.943,1.421-1.612,2.433-1.983
						c0.642-0.235,1.339-0.366,2.007-0.259C397.606,141.578,398.479,143.058,398.432,144.423z"/>
				</g>
			</g>
			<g>
				<g>
					<path style="fill:#FFE551;" d="M430.692,162.696c-0.269-0.118-0.542-0.222-0.818-0.31c-2.092-0.668-4.396-0.544-6.475,0.165
						c-3.579,1.222-6.586,4.418-6.943,8.183c-0.073,0.773,0.149,1.528,0.201,2.284c0.07,1.01,0.187,1.9,0.675,2.812
						c0.812,1.518,2.321,2.552,3.904,3.227c1.325,0.565,2.754,0.922,4.195,0.907c2.857-0.029,5.547-1.525,7.573-3.54
						c1.285-1.278,2.372-2.812,2.836-4.564C436.838,168.095,434.126,164.21,430.692,162.696z"/>
				</g>
				<g>
					<path style="fill:#FBAD18;" d="M435.606,166.118c-0.099,0.04-0.195,0.085-0.289,0.135c-0.706,0.381-1.263,1.029-1.611,1.773
						c-0.6,1.282-0.548,2.937,0.327,4.036c0.18,0.225,0.43,0.367,0.638,0.555c0.277,0.25,0.535,0.457,0.894,0.569
						c0.597,0.188,1.248,0.061,1.826-0.182c0.483-0.204,0.94-0.49,1.304-0.879c0.722-0.771,1.025-1.888,1.026-2.966
						c0-0.684-0.116-1.383-0.447-1.974C438.562,165.916,436.872,165.604,435.606,166.118z"/>
				</g>
			</g>
			<g>
				<g>
					<path style="fill:#FFE551;" d="M424.217,121.612c0.171,0.227,0.329,0.458,0.474,0.695c1.092,1.789,1.476,3.847,1.254,5.762
						c-0.383,3.297-2.767,6.285-6.27,6.979c-0.719,0.142-1.486,0.021-2.217,0.049c-0.976,0.039-1.848,0.024-2.822-0.318
						c-1.621-0.569-2.933-1.804-3.921-3.142c-0.826-1.119-1.477-2.351-1.777-3.631c-0.595-2.538,0.242-5.074,1.717-7.073
						c0.935-1.268,2.158-2.385,3.723-2.972C417.742,116.698,422.029,118.716,424.217,121.612z"/>
				</g>
				<g>
					<path style="fill:#FBAD18;" d="M419.892,117.594c-0.017,0.092-0.039,0.182-0.066,0.27c-0.208,0.664-0.704,1.223-1.336,1.607
						c-1.088,0.661-2.674,0.78-3.91,0.113c-0.254-0.137-0.443-0.345-0.667-0.51c-0.299-0.221-0.551-0.43-0.737-0.737
						c-0.309-0.511-0.329-1.101-0.224-1.638c0.088-0.45,0.261-0.883,0.551-1.245c0.576-0.718,1.573-1.098,2.598-1.206
						c0.65-0.068,1.341-0.035,1.975,0.199C419.44,114.951,420.104,116.419,419.892,117.594z"/>
				</g>
			</g>
			<g>
				<g>
					<path style="fill:#FFE551;" d="M447.214,121.411c-0.333,0.049-0.66,0.113-0.98,0.194c-2.425,0.611-4.531,2.072-6.038,3.935
						c-2.595,3.209-3.351,7.889-1.219,11.54c0.438,0.749,1.144,1.31,1.691,1.971c0.73,0.882,1.425,1.628,2.487,2.176
						c1.768,0.913,3.879,0.977,5.825,0.669c1.629-0.258,3.219-0.767,4.578-1.622c2.694-1.697,4.264-4.637,4.865-7.663
						c0.381-1.919,0.405-3.957-0.304-5.83C456.593,122.755,451.468,120.788,447.214,121.411z"/>
				</g>
				<g>
					<path style="fill:#FBAD18;" d="M454.126,121.667c-0.068,0.095-0.13,0.192-0.185,0.293c-0.42,0.76-0.523,1.679-0.365,2.563
						c0.272,1.523,1.408,3.006,2.96,3.499c0.319,0.101,0.65,0.085,0.97,0.135c0.427,0.067,0.808,0.105,1.223-0.002
						c0.69-0.177,1.224-0.674,1.613-1.234c0.326-0.469,0.571-0.997,0.661-1.565c0.18-1.127-0.266-2.326-0.974-3.312
						c-0.449-0.625-1.018-1.197-1.72-1.543C456.799,119.755,454.99,120.458,454.126,121.667z"/>
				</g>
			</g>
			<g>
				<g>
					<path style="fill:#FFE551;" d="M453.972,103.673c-0.038,0.281-0.089,0.557-0.154,0.826c-0.487,2.039-1.664,3.769-3.171,4.971
						c-2.595,2.07-6.393,2.509-9.367,0.532c-0.61-0.406-1.069-1.033-1.608-1.527c-0.719-0.66-1.328-1.285-1.778-2.214
						c-0.749-1.546-0.809-3.347-0.567-4.992c0.203-1.377,0.61-2.709,1.299-3.828c1.367-2.22,3.748-3.429,6.203-3.808
						c1.557-0.24,3.212-0.171,4.736,0.515C452.841,95.623,454.46,100.076,453.972,103.673z"/>
				</g>
				<g>
					<path style="fill:#FBAD18;" d="M453.735,97.773c-0.077,0.053-0.156,0.102-0.237,0.145c-0.616,0.325-1.361,0.372-2.08,0.199
						c-1.238-0.298-2.447-1.331-2.854-2.675c-0.083-0.276-0.071-0.557-0.113-0.832c-0.056-0.367-0.088-0.693-0.004-1.041
						c0.141-0.58,0.542-1.013,0.995-1.32c0.379-0.257,0.808-0.442,1.269-0.495c0.914-0.104,1.89,0.329,2.694,0.975
						c0.51,0.41,0.976,0.92,1.261,1.533C455.277,95.58,454.714,97.09,453.735,97.773z"/>
				</g>
			</g>
		</g>
	</g>
	<g>
		<ellipse style="opacity:0.3;fill:#B5C8DD;" cx="348.987" cy="422.088" rx="84.481" ry="16.278"/>
		<g>
			<g>
				<path style="fill:#FFE551;" d="M419.283,270.254c0,0-15.549,70.24-15.036,131.923c0,0,3.114,23.362-16.063,27.23
					c0,0-16.555,3.245-34.246,4.524h-16.413c-9.867-0.71-19.385-2.044-25.864-3.082c-5.147-0.809-8.381-1.442-8.381-1.442
					c-19.177-3.868-16.063-27.23-16.063-27.23c0.514-61.684-15.036-131.923-15.036-131.923c-12.959-6.48-8.031-18.664-8.031-18.664
					c17.199,4.054,52.527,4.874,73.375,4.983v-0.054c0,0,1.716,0.033,4.699,0.043c1.027,0.011,2.196,0.011,3.508,0.022
					c5.103-0.011,8.206-0.065,8.206-0.065v0.054c20.849-0.109,56.177-0.929,73.376-4.983
					C427.315,251.59,432.243,263.774,419.283,270.254z"/>
				<g>
					<path style="fill:#F5D72C;" d="M419.283,270.254c0,0-15.549,70.24-15.036,131.923c0,0,3.114,23.362-16.063,27.23
						c0,0-16.555,3.245-34.246,4.524h-16.413c-9.867-0.71-19.385-2.044-25.864-3.082c0.262-0.208,0.524-0.415,0.787-0.634
						c13.746-11.353,12.064-29.678,0.853-41.873c-3.071-3.344-6.578-6.229-10.26-8.884c-2.382-1.715-10.305-4.819-11.474-7.277
						c-2.819-5.89,13.145-6.239,18.336-7.529c17.025-4.262,33.94-10.785,47.173-22.663c12.599-11.298,20.281-26.356,23.537-42.812
						c3.365-16.97-6.939-29.569-22.171-37.054c-5.158-2.535-10.621-4.305-16.216-5.562c1.027,0.011,2.196,0.011,3.508,0.022
						c5.103-0.011,8.206-0.065,8.206-0.065v0.054c20.849-0.109,56.177-0.929,73.376-4.983
						C427.315,251.59,432.243,263.774,419.283,270.254z"/>
				</g>
				<path style="fill:#F5D72C;" d="M356.532,163.303h-21.598c-4.103,0-7.43,3.326-7.43,7.43l0,0c0,4.103,3.326,7.43,7.43,7.43
					h21.598c4.103,0,7.43-3.326,7.43-7.43l0,0C363.962,166.629,360.636,163.303,356.532,163.303z"/>
				<path style="fill:#FFE551;" d="M418.161,197.288c0,6.244-32.427,11.305-72.427,11.305s-72.427-5.062-72.427-11.305
					c0-6.244,32.427-25.261,72.427-25.261S418.161,191.045,418.161,197.288z"/>
				<path style="fill:#F5D72C;" d="M402.215,283.126c0.131-0.011,0.263-0.022,0.404-0.033c4.775-0.393,9.55-0.852,14.326-1.344
					c0.175-0.885,0.338-1.727,0.492-2.513c-4.841,0.503-9.682,0.962-14.533,1.366c2.524-8.971,5.409-17.822,8.687-26.542
					c-0.896,0.098-1.814,0.186-2.732,0.273c-3.234,8.709-6.064,17.538-8.556,26.476c-7.037,0.546-14.096,0.983-21.155,1.311
					c-0.787,0.043-1.562,0.077-2.349,0.109c0.251-1.125,0.503-2.262,0.765-3.387c1.748-7.693,3.737-15.331,5.966-22.892
					c-0.863,0.033-1.727,0.065-2.59,0.098c-1.924,6.589-3.672,13.233-5.223,19.909c-0.503,2.12-0.983,4.24-1.442,6.37
					c-0.995,0.044-1.989,0.087-2.972,0.12c-9.769,0.349-19.538,0.47-29.296,0.393c-0.24-8.764-0.481-17.527-0.743-26.28
					c-1.005-0.011-1.836-0.022-2.459-0.022c0.262,8.753,0.503,17.516,0.743,26.269c-9.19-0.099-18.379-0.382-27.558-0.863
					c-1.912-8.774-4.12-17.483-6.655-26.105c-0.863-0.033-1.726-0.077-2.6-0.109c2.546,8.611,4.786,17.298,6.709,26.072
					c-2.393-0.142-4.786-0.273-7.179-0.437c-5.485-0.371-10.96-0.82-16.434-1.322c-2.491-8.884-5.344-17.647-8.567-26.28
					c-0.94-0.109-1.857-0.23-2.765-0.35c3.278,8.676,6.174,17.473,8.698,26.389c-3.081-0.295-6.163-0.623-9.244-0.961
					c0.153,0.787,0.317,1.617,0.492,2.502c3.147,0.35,6.294,0.678,9.452,0.973c1.77,6.447,3.365,12.949,4.797,19.483
					c-3.595-0.306-7.179-0.656-10.763-1.027c0.142,0.82,0.284,1.661,0.415,2.502c3.628,0.383,7.256,0.732,10.883,1.049
					c1.497,7.037,2.797,14.118,3.934,21.231c2.174,13.615,3.737,27.318,4.895,41.064c0.306,3.507,0.579,7.015,0.831,10.534
					c0.306,4.436,0.59,8.873,0.83,13.309c-4.207-0.306-8.414-0.655-12.61-1.027c0.022,0.819,0.033,1.639,0.055,2.459
					c4.229,0.382,8.457,0.743,12.697,1.038c0.23,4.458,0.459,8.906,0.645,13.364c0.076,1.912,0.142,3.835,0.207,5.748
					c-4.436-0.306-8.884-0.677-13.32-1.082c0.12,0.82,0.273,1.65,0.459,2.502c4.316,0.383,8.633,0.743,12.96,1.038
					c0.175,4.797,0.317,9.594,0.459,14.391c0.645,0.197,1.311,0.371,2.011,0.513c0,0,0.164,0.033,0.47,0.087
					c-0.142-4.939-0.295-9.889-0.47-14.828c6.032,0.393,12.063,0.71,18.095,0.94v1.038c0.033,5.212,0.033,10.424,0.011,15.626
					c0.798,0.109,1.617,0.208,2.459,0.317c0.022-5.627,0.022-11.255,0-16.882c2.972,0.109,5.955,0.197,8.927,0.262
					c3.202,0.066,6.403,0.109,9.605,0.131c0.011,0.503,0.022,0.994,0.033,1.497c0.077,5.453,0.142,10.894,0.208,16.336h2.448
					c-0.077-5.944-0.142-11.889-0.229-17.833c5.89,0.022,11.779-0.022,17.658-0.153c-0.022,5.737-0.022,11.485,0,17.221
					c0.831-0.088,1.65-0.175,2.459-0.273c-0.022-5.671-0.022-11.342,0-17.014c6.032-0.153,12.064-0.383,18.095-0.699
					c-0.186,5.081-0.339,10.151-0.481,15.233c0.929-0.153,1.748-0.295,2.47-0.426c0.142-4.983,0.295-9.955,0.47-14.927
					c5.704-0.317,11.408-0.71,17.112-1.18c0.306-0.022,0.612-0.055,0.918-0.076c0.197-0.852,0.36-1.694,0.481-2.513
					c-6.13,0.514-12.271,0.951-18.423,1.289c0.24-6.359,0.524-12.73,0.852-19.09c5.398-0.306,10.785-0.677,16.172-1.115
					c0.557-0.044,1.115-0.098,1.683-0.153c0.011-0.82,0.033-1.639,0.055-2.459c-5.923,0.492-11.845,0.918-17.779,1.257
					c0.372-6.808,0.82-13.615,1.366-20.423c1.748-21.996,4.491-43.96,9.004-65.574c1.89-0.131,3.781-0.273,5.671-0.426
					c3.475-0.285,6.961-0.601,10.436-0.94c0.142-0.852,0.273-1.683,0.415-2.513c-5.321,0.525-10.654,1.005-15.986,1.399
					c0.852-3.945,1.748-7.889,2.732-11.801C400.849,288.185,401.516,285.65,402.215,283.126z M373.739,284.809
					c-1.333,6.37-2.513,12.763-3.562,19.188c-9.19,0.306-18.39,0.415-27.591,0.35c-0.033-1.333-0.055-2.666-0.099-4.01
					c-0.12-5.016-0.284-10.02-0.415-15.036C352.628,285.388,363.194,285.213,373.739,284.809z M332.773,285.169
					c2.284,0.055,4.567,0.077,6.84,0.109c0.175,6.349,0.35,12.697,0.513,19.046c-8.01-0.087-16.019-0.306-24.029-0.678
					c-0.448-2.786-0.918-5.562-1.421-8.337c-0.667-3.639-1.388-7.267-2.153-10.895C319.278,284.765,326.02,285.027,332.773,285.169z
					 M288.497,290.086c-0.623-2.513-1.29-5.026-1.967-7.518c7.802,0.71,15.626,1.279,23.449,1.716
					c1.355,6.382,2.557,12.796,3.628,19.243c-3.781-0.186-7.561-0.404-11.342-0.656c-3.672-0.241-7.343-0.524-11.004-0.841
					C290.398,298.041,289.491,294.053,288.497,290.086z M302.199,390.649c-0.219-4.054-0.47-8.108-0.754-12.151
					c-0.186-2.721-0.393-5.431-0.612-8.152c-0.109-1.399-0.229-2.797-0.339-4.196c-1.781-20.663-4.458-41.305-8.698-61.618
					c7.398,0.623,14.806,1.115,22.215,1.475c1.344,8.381,2.447,16.806,3.354,25.253c1.093,10.173,1.901,20.379,2.491,30.607
					c0.579,9.911,0.962,19.844,1.191,29.766c-1.748-0.066-3.486-0.142-5.234-0.219c-4.513-0.208-9.037-0.47-13.549-0.765H302.199z
					 M303.194,412.219c-0.24-6.381-0.524-12.752-0.863-19.122c5.06,0.339,10.118,0.623,15.189,0.841
					c1.191,0.055,2.393,0.109,3.595,0.153c0.054,2.852,0.109,5.693,0.142,8.545c0.055,3.508,0.098,7.016,0.12,10.523
					C315.312,412.918,309.247,412.612,303.194,412.219z M323.059,377.012c-0.208-5.311-0.47-10.621-0.787-15.932
					c-1.093-18.401-2.885-36.759-5.758-54.952c5.42,0.251,10.84,0.437,16.26,0.546c2.47,0.054,4.939,0.087,7.409,0.12
					c0.24,9.747,0.492,19.505,0.71,29.263c0.131,5.649,0.251,11.299,0.361,16.959c0.273,13.025,0.513,26.072,0.732,39.108
					c-6.163-0.055-12.326-0.186-18.478-0.404C323.387,386.813,323.256,381.918,323.059,377.012z M323.824,413.235
					c-0.044-6.349-0.12-12.698-0.262-19.046c3.071,0.109,6.141,0.197,9.212,0.262c3.081,0.065,6.174,0.109,9.255,0.131
					c0.109,6.349,0.219,12.697,0.317,19.046C336.172,413.585,329.998,413.453,323.824,413.235z M362.506,413.191v0.306
					c-5.901,0.131-11.801,0.175-17.713,0.153c-0.098-6.349-0.197-12.708-0.306-19.057c6.097,0.022,12.184-0.033,18.281-0.164
					C362.637,400.68,362.55,406.93,362.506,413.191z M362.823,391.982c-6.13,0.131-12.249,0.186-18.379,0.164
					c-0.055-3.431-0.098-6.851-0.164-10.272c-0.186-10.074-0.383-20.139-0.601-30.213c-0.306-14.948-0.656-29.896-1.027-44.845
					c9.037,0.066,18.084-0.054,27.132-0.35c-1.267,8.064-2.338,16.161-3.212,24.28c-0.033,0.328-0.066,0.656-0.109,0.983
					C364.331,351.737,363.282,371.854,362.823,391.982z M383.377,406.296c-0.088,2.142-0.164,4.283-0.241,6.414
					c-3.944,0.208-7.889,0.393-11.834,0.535c-2.109,0.077-4.218,0.12-6.327,0.175c0.044-6.349,0.12-12.697,0.251-19.057
					c6.261-0.153,12.512-0.404,18.762-0.732C383.759,397.85,383.563,402.078,383.377,406.296z M390.763,325.151
					c-3.475,21.854-5.42,43.916-6.643,66c-4.272,0.229-8.545,0.437-12.817,0.579c-2.011,0.077-4.01,0.12-6.01,0.175
					c0.109-4.786,0.24-9.583,0.426-14.369c0.645-16.708,1.77-33.404,3.683-50.025c0.809-7.07,1.759-14.118,2.863-21.144
					c2.229-0.077,4.458-0.164,6.688-0.273c5.158-0.229,10.315-0.525,15.462-0.874C393.036,311.831,391.823,318.475,390.763,325.151z
					 M394.949,302.718c-5.103,0.35-10.217,0.645-15.331,0.896c-2.316,0.109-4.622,0.207-6.939,0.295
					c0.448-2.743,0.896-5.475,1.398-8.195c0.678-3.672,1.399-7.343,2.175-10.993c1.256-0.055,2.513-0.109,3.759-0.175
					c6.545-0.306,13.08-0.732,19.614-1.235C397.888,289.737,396.336,296.206,394.949,302.718z"/>
				<path style="fill:#F5D72C;" d="M427.735,203.071l-0.785-1.823c-1.879-4.364-6.174-7.191-10.925-7.191h-67.858h-4.866h-67.859
					c-4.751,0-9.046,2.827-10.925,7.191l-0.785,1.823c-0.751,1.743,0.528,3.686,2.426,3.686h77.142h4.866h77.142
					C427.207,206.757,428.485,204.814,427.735,203.071z"/>
				<g>
					<g>
						<path style="fill:#E6BE1E;" d="M377.564,278.842c-0.557-0.984-1.18-1.956-1.847-2.885c1.552-6.676,3.3-13.32,5.223-19.909
							c0.863-0.033,1.726-0.066,2.59-0.098C381.301,263.512,379.312,271.15,377.564,278.842z"/>
					</g>
					<g>
						<path style="fill:#E6BE1E;" d="M301.445,378.498c-0.754-0.404-1.628-0.863-2.557-1.344c-0.251-3.518-0.525-7.026-0.831-10.534
							c0.787-0.175,1.606-0.328,2.437-0.47c0.109,1.399,0.229,2.797,0.339,4.196C301.052,373.067,301.26,375.777,301.445,378.498z"
							/>
					</g>
					<g>
						<path style="fill:#E6BE1E;" d="M402.215,283.126c0.131-0.011,0.263-0.022,0.404-0.033c4.775-0.393,9.55-0.852,14.326-1.344
							c0.175-0.885,0.338-1.727,0.492-2.513c-4.841,0.503-9.682,0.962-14.533,1.366c2.524-8.971,5.409-17.822,8.687-26.542
							c-0.896,0.098-1.814,0.186-2.732,0.273c-3.234,8.709-6.064,17.538-8.556,26.476c-7.037,0.546-14.096,0.983-21.155,1.311
							c0.328,0.787,0.612,1.595,0.863,2.426c6.545-0.306,13.08-0.732,19.614-1.235c-1.737,6.425-3.289,12.894-4.677,19.407
							c-5.103,0.35-10.217,0.645-15.331,0.896c-0.208,0.83-0.426,1.661-0.666,2.48c5.158-0.229,10.315-0.525,15.462-0.874
							c-1.377,6.611-2.59,13.255-3.65,19.931c-3.475,21.854-5.42,43.916-6.643,66c-4.272,0.229-8.545,0.437-12.817,0.579
							c-2.011,0.077-4.01,0.12-6.01,0.175c0.109-4.786,0.24-9.583,0.426-14.369c0.645-16.708,1.77-33.404,3.683-50.025
							c-0.929,1.442-1.912,2.841-2.939,4.218c-2.131,20.007-3.18,40.124-3.639,60.252c-6.13,0.131-12.249,0.186-18.379,0.164
							c-0.055-3.431-0.098-6.851-0.164-10.272c-0.186-10.074-0.383-20.139-0.601-30.213c-0.798,0.47-1.606,0.918-2.426,1.355
							c0.273,13.025,0.513,26.072,0.732,39.108c-6.163-0.055-12.326-0.186-18.478-0.404c-0.12-4.907-0.251-9.802-0.448-14.708
							c-0.208-5.311-0.47-10.621-0.787-15.932c-0.798,0.273-1.606,0.535-2.415,0.787c0.579,9.911,0.962,19.844,1.191,29.766
							c-1.748-0.066-3.486-0.142-5.234-0.219c0.623,0.82,1.191,1.661,1.705,2.524c1.191,0.055,2.393,0.109,3.595,0.153
							c0.054,2.852,0.109,5.693,0.142,8.545c1.235,4.644,1.333,9.452,0.12,14.009c0.033,5.212,0.033,10.424,0.011,15.626
							c0.798,0.109,1.617,0.208,2.459,0.317c0.022-5.627,0.022-11.255,0-16.882c2.972,0.109,5.955,0.197,8.927,0.262
							c3.202,0.066,6.403,0.109,9.605,0.131c0.011,0.503,0.022,0.994,0.033,1.497c0.077,5.453,0.142,10.894,0.208,16.336h2.448
							c-0.077-5.944-0.142-11.889-0.229-17.833c5.89,0.022,11.779-0.022,17.658-0.153c-0.022,5.737-0.022,11.485,0,17.221
							c0.831-0.088,1.65-0.175,2.459-0.273c-0.022-5.671-0.022-11.342,0-17.014c6.032-0.153,12.064-0.383,18.095-0.699
							c-0.186,5.081-0.339,10.151-0.481,15.233c0.929-0.153,1.748-0.295,2.47-0.426c0.142-4.983,0.295-9.955,0.47-14.927
							c5.704-0.317,11.408-0.71,17.112-1.18c0.306-0.022,0.612-0.055,0.918-0.076c0.197-0.852,0.36-1.694,0.481-2.513
							c-6.13,0.514-12.271,0.951-18.423,1.289c0.24-6.359,0.524-12.73,0.852-19.09c5.398-0.306,10.785-0.677,16.172-1.115
							c0.557-0.044,1.115-0.098,1.683-0.153c0.011-0.82,0.033-1.639,0.055-2.459c-5.923,0.492-11.845,0.918-17.779,1.257
							c0.372-6.808,0.82-13.615,1.366-20.423c1.748-21.996,4.491-43.96,9.004-65.574c1.89-0.131,3.781-0.273,5.671-0.426
							c3.475-0.285,6.961-0.601,10.436-0.94c0.142-0.852,0.273-1.683,0.415-2.513c-5.321,0.525-10.654,1.005-15.986,1.399
							c0.852-3.945,1.748-7.889,2.732-11.801C400.849,288.185,401.516,285.65,402.215,283.126z M323.824,413.235
							c-0.044-6.349-0.12-12.698-0.262-19.046c3.071,0.109,6.141,0.197,9.212,0.262c3.081,0.065,6.174,0.109,9.255,0.131
							c0.109,6.349,0.219,12.697,0.317,19.046C336.172,413.585,329.998,413.453,323.824,413.235z M362.506,413.191v0.306
							c-5.901,0.131-11.801,0.175-17.713,0.153c-0.098-6.349-0.197-12.708-0.306-19.057c6.097,0.022,12.184-0.033,18.281-0.164
							C362.637,400.68,362.55,406.93,362.506,413.191z M383.377,406.296c-0.088,2.142-0.164,4.283-0.241,6.414
							c-3.944,0.208-7.889,0.393-11.834,0.535c-2.109,0.077-4.218,0.12-6.327,0.175c0.044-6.349,0.12-12.697,0.251-19.057
							c6.261-0.153,12.512-0.404,18.762-0.732C383.759,397.85,383.563,402.078,383.377,406.296z"/>
					</g>
				</g>
				<path style="fill:#B5C8DD;" d="M427.588,252.41c-0.153-0.524-0.273-0.82-0.273-0.82c-17.199,4.054-52.527,4.874-73.376,4.983
					v-0.054c0,0-1.606,0.033-4.414,0.054h-0.033c-1.082,0-2.338,0-3.759,0.011c-1.311-0.011-2.48-0.011-3.508-0.022
					c-2.983-0.011-4.699-0.043-4.699-0.043v0.054c-20.849-0.109-56.176-0.929-73.375-4.983c0,0-0.12,0.295-0.273,0.82
					c-1.661-14.752,2.284-47.205,2.284-47.205h159.142C425.304,205.204,429.249,237.669,427.588,252.41z"/>
				<path style="fill:#B5C8DD;" d="M413.743,315.754l-5.857,52.822c-0.164,1.18-0.973,2.174-2.098,2.524
					c-11.899,3.759-27.383,5.387-40.387,6.043c-7.944,0.415-14.959,0.459-19.669,0.415c-12.413,0.109-40.889-0.393-60.044-6.458
					c-1.136-0.35-1.945-1.344-2.109-2.524l-5.857-52.822c-0.503-3.573,2.546-6.644,6.13-6.152
					c9.966,1.377,29.689,3.584,54.767,3.726c0.284-0.076,0.568-0.131,0.874-0.12c2.109,0.055,4.185,0.087,6.239,0.109
					c2.055-0.022,4.13-0.055,6.239-0.109c0.306-0.011,0.601,0.044,0.874,0.12c9.223-0.044,17.724-0.382,25.275-0.841
					c12.992-0.809,23.198-2.01,29.503-2.885C411.197,309.111,414.246,312.181,413.743,315.754z"/>
				<g>
					<g>
						<g>
							<path style="fill:#D6ED85;" d="M320.968,349.054c1.704,2.693,3.557,4.772,5.494,6.298c0.155,0.124,0.31,0.241,0.466,0.358
								c4.854,3.585,10.167,3.735,14.783,1.333c0.103-0.052,0.207-0.105,0.311-0.163c0.097-0.054,0.186-0.102,0.276-0.157
								c0.06-0.034,0.12-0.069,0.174-0.105c0.143-0.084,0.285-0.168,0.429-0.259c4.869-3.08,7.503-8.25,6.263-14.669l-0.111-0.539
								c-0.545-2.422-1.639-5.02-3.363-7.743c-5.485-8.67-20.525-12.74-24.954-13.768c-0.76-0.178-1.481,0.249-1.671,1
								C317.911,325.13,315.451,340.338,320.968,349.054z"/>
							<path style="fill:#9BCD5A;" d="M320.406,334.868c1.918,0.654,3.845,1.296,5.776,1.92c0.965,0.312,1.931,0.623,2.897,0.928
								c0.45,0.136,0.894,0.304,1.352,0.402c0.361,0.085,0.831,0.086,1.126,0.337c0.056,0.051,0.124,0.078,0.186,0.097
								c1.141,1.659,2.238,3.343,3.273,5.067c0.353,0.594,0.698,1.187,1.042,1.792c-0.913-0.109-1.822-0.237-2.726-0.391
								c-1.815-0.309-3.612-0.706-5.384-1.192c-1.998-0.55-3.961-1.213-5.883-1.981c-0.528-0.211-0.776,0.634-0.254,0.844
								c3.741,1.488,7.634,2.575,11.614,3.228c0.95,0.156,1.918,0.322,2.883,0.402c0.092,0.005,0.177,0.009,0.265,0
								c1.176,2.117,2.277,4.279,3.291,6.476c-0.055,0.042-0.121,0.075-0.209,0.084c-0.435,0.053-0.992-0.111-1.411-0.202
								c-1.796-0.371-3.553-0.966-5.313-1.483c-2.162-0.629-4.322-1.265-6.483-1.901c-0.546-0.155-0.799,0.683-0.254,0.844
								c2.067,0.604,4.133,1.214,6.207,1.82c1.954,0.575,3.924,1.266,5.934,1.626c0.563,0.106,1.361,0.324,1.918,0.057
								c0.506,1.122,0.995,2.26,1.457,3.399c0.103-0.052,0.207-0.105,0.311-0.163c0.097-0.054,0.186-0.102,0.276-0.157
								c0.06-0.034,0.12-0.069,0.174-0.105c-0.505-1.261-1.039-2.507-1.602-3.74c0.085-0.228,0.159-0.465,0.242-0.681
								c0.192-0.499,0.379-1.005,0.565-1.505c0.678-1.84,1.242-3.704,1.579-5.632c0.378-2.132,0.53-4.29,0.45-6.453
								c-0.02-0.567-0.902-0.597-0.875-0.035c0.129,3.579-0.379,7.13-1.521,10.529c-0.293,0.87-0.617,1.733-0.948,2.595
								c-0.004,0.019-0.014,0.037-0.018,0.056c-0.937-1.983-1.935-3.932-2.998-5.848c0.223-0.353,0.261-0.843,0.347-1.243
								c0.391-1.831,0.745-3.677,0.964-5.536c0.253-2.137,0.31-4.287,0.094-6.431c-0.053-0.567-0.914-0.368-0.859,0.187
								c0.356,3.538-0.131,7.08-0.835,10.546c-0.076,0.383-0.159,0.764-0.241,1.145c-0.019,0.096-0.033,0.199-0.048,0.309
								c-1.372-2.395-2.85-4.731-4.42-6.999c0.428-3.581,0.02-7.222-0.56-10.765c-0.095-0.556-0.949-0.361-0.861,0.193
								c0.511,3.125,0.884,6.315,0.651,9.477c-0.11-0.148-0.212-0.301-0.322-0.449c-2.077-2.886-4.311-5.645-6.698-8.275
								c-0.38-0.42-1.024,0.181-0.643,0.601c2.478,2.734,4.788,5.614,6.935,8.614c-0.329-0.079-0.662-0.139-0.973-0.24
								c-1.03-0.318-2.052-0.647-3.08-0.978c-2.056-0.661-4.102-1.341-6.138-2.031C320.118,333.85,319.865,334.688,320.406,334.868z
								"/>
						</g>
					</g>
					<g>
						<g>
							<path style="fill:#D6ED85;" d="M370.581,359.914c-1.689,2.702-3.531,4.792-5.459,6.328c-0.154,0.124-0.309,0.242-0.464,0.361
								c-4.835,3.612-10.147,3.791-14.775,1.414c-0.104-0.052-0.207-0.104-0.312-0.162c-0.097-0.053-0.187-0.101-0.277-0.156
								c-0.06-0.034-0.12-0.068-0.174-0.104c-0.143-0.083-0.286-0.167-0.431-0.257c-4.886-3.054-7.548-8.209-6.343-14.635
								l0.108-0.54c0.532-2.425,1.611-5.029,3.321-7.761c5.438-8.699,20.455-12.851,24.879-13.903
								c0.759-0.182,1.483,0.24,1.676,0.99C373.508,335.974,376.05,351.168,370.581,359.914z"/>
							<path style="fill:#9BCD5A;" d="M371.066,345.725c-1.915,0.664-3.838,1.317-5.766,1.951c-0.964,0.317-1.927,0.634-2.892,0.944
								c-0.449,0.139-0.892,0.309-1.35,0.409c-0.36,0.087-0.831,0.091-1.124,0.343c-0.056,0.051-0.123,0.078-0.186,0.098
								c-1.132,1.665-2.22,3.355-3.246,5.085c-0.349,0.596-0.692,1.19-1.032,1.798c0.912-0.114,1.821-0.247,2.724-0.405
								c1.813-0.318,3.607-0.726,5.378-1.221c1.995-0.561,3.954-1.235,5.872-2.013c0.527-0.214,0.78,0.63,0.259,0.843
								c-3.733,1.508-7.62,2.616-11.596,3.292c-0.949,0.161-1.916,0.333-2.881,0.418c-0.092,0.006-0.177,0.01-0.265,0.001
								c-1.164,2.123-2.253,4.291-3.255,6.494c0.055,0.042,0.121,0.074,0.209,0.083c0.435,0.05,0.992-0.117,1.41-0.209
								c1.794-0.381,3.548-0.986,5.305-1.512c2.158-0.641,4.315-1.289,6.472-1.937c0.545-0.158,0.803,0.678,0.259,0.843
								c-2.064,0.615-4.126,1.237-6.197,1.853c-1.951,0.586-3.917,1.287-5.925,1.658c-0.562,0.109-1.359,0.332-1.917,0.068
								c-0.5,1.124-0.983,2.265-1.439,3.407c-0.104-0.052-0.207-0.104-0.312-0.162c-0.097-0.053-0.187-0.101-0.277-0.156
								c-0.06-0.034-0.12-0.068-0.174-0.104c0.498-1.263,1.025-2.513,1.581-3.748c-0.086-0.228-0.161-0.465-0.245-0.68
								c-0.195-0.498-0.385-1.003-0.573-1.502c-0.688-1.837-1.262-3.697-1.61-5.623c-0.39-2.13-0.553-4.287-0.486-6.451
								c0.017-0.567,0.899-0.602,0.875-0.04c-0.109,3.58,0.418,7.128,1.578,10.521c0.297,0.868,0.627,1.73,0.962,2.59
								c0.004,0.019,0.014,0.037,0.018,0.056c0.926-1.988,1.913-3.943,2.966-5.864c-0.225-0.352-0.265-0.841-0.354-1.242
								c-0.401-1.829-0.766-3.672-0.994-5.53c-0.265-2.136-0.334-4.285-0.13-6.431c0.05-0.568,0.913-0.373,0.86,0.182
								c-0.337,3.54,0.17,7.079,0.892,10.542c0.078,0.382,0.163,0.763,0.247,1.144c0.02,0.096,0.034,0.199,0.05,0.308
								c1.359-2.402,2.824-4.746,4.381-7.023c-0.448-3.578-0.059-7.222,0.502-10.768c0.092-0.556,0.947-0.366,0.861,0.189
								c-0.494,3.128-0.849,6.319-0.599,9.48c0.109-0.148,0.21-0.302,0.319-0.45c2.061-2.897,4.28-5.668,6.653-8.311
								c0.378-0.422,1.025,0.175,0.647,0.598c-2.463,2.748-4.758,5.64-6.888,8.652c0.328-0.081,0.661-0.142,0.972-0.246
								c1.029-0.324,2.049-0.658,3.075-0.995c2.052-0.672,4.094-1.363,6.127-2.065C371.348,344.706,371.606,345.542,371.066,345.725
								z"/>
						</g>
					</g>
				</g>
				<g>
					<path style="fill:#9EBAD9;" d="M413.743,315.754l-5.857,52.822c-0.164,1.18-0.973,2.174-2.098,2.524
						c-11.899,3.759-27.383,5.387-40.387,6.043c4.196-4.338,7.354-9.736,9.485-15.407c3.125-8.337,4.207-17.297,4.677-26.192
						c0.393-7.376-1.355-14.249-1.475-21.472c-0.011-0.568,0-1.093,0.033-1.585c12.992-0.809,23.198-2.01,29.503-2.885
						C411.197,309.111,414.246,312.181,413.743,315.754z"/>
				</g>
				<g>
					<path style="fill:#9EBAD9;" d="M427.588,252.41c-0.153-0.524-0.273-0.82-0.273-0.82c-17.199,4.054-52.527,4.874-73.376,4.983
						v-0.054c0,0-1.606,0.033-4.414,0.054h-0.033c-4.283-0.383-8.589-0.699-12.905-0.885c8.283-0.546,14.041-9.703,13.233-17.964
						c-0.809-8.261-6.523-15.298-13.091-20.368c-7.857-6.076-17.265-10.118-27.088-11.637c0.251-0.175,0.503-0.35,0.754-0.514
						h114.909C425.304,205.204,429.249,237.669,427.588,252.41z"/>
				</g>
				<g>
					
						<path style="fill:none;stroke:#8F633C;stroke-width:1.3;stroke-linecap:round;stroke-linejoin:round;stroke-miterlimit:10;" d="
						M292.031,270.997c0,0,73.476,8.001,127.251-0.743"/>
					
						<path style="fill:none;stroke:#8F633C;stroke-width:1.3;stroke-linecap:round;stroke-linejoin:round;stroke-miterlimit:10;" d="
						M281.923,353.615l1.309,11.813c0,0-0.219,5.236,5.922,6.686c0,0,35.301,5.46,46.561,5.457"/>
					
						<path style="fill:none;stroke:#8F633C;stroke-width:1.3;stroke-linecap:round;stroke-linejoin:round;stroke-miterlimit:10;" d="
						M340.637,377.57c0,0,9.6,0.044,11.445,0"/>
					
						<path style="fill:none;stroke:#8F633C;stroke-width:1.3;stroke-linecap:round;stroke-linejoin:round;stroke-miterlimit:10;" d="
						M333.547,205.761c30.503-0.4,61.239-0.4,91.761,0"/>
					
						<path style="fill:none;stroke:#8F633C;stroke-width:1.3;stroke-linecap:round;stroke-linejoin:round;stroke-miterlimit:10;" d="
						M313.193,205.761c5.088,0,10.177,0,15.265,0"/>
					
						<path style="fill:none;stroke:#8F633C;stroke-width:1.3;stroke-linecap:round;stroke-linejoin:round;stroke-miterlimit:10;" d="
						M377.674,175.843c12.336,2.849,25.609,6.954,35.403,15.315"/>
					
						<path style="fill:none;stroke:#8F633C;stroke-width:1.3;stroke-linecap:round;stroke-linejoin:round;stroke-miterlimit:10;" d="
						M363.419,173.244c3.558,0.44,7.095,1.076,10.604,1.801"/>
					
						<path style="fill:none;stroke:#8F633C;stroke-width:1.3;stroke-linecap:round;stroke-linejoin:round;stroke-miterlimit:10;" d="
						M279.559,310.881l-7.374-40.627c-12.21-3.44-8.034-18.661-8.034-18.661s-0.158-36.993,2.008-44.837"/>
				</g>
				<g>
					<g>
						<g>
							<path style="fill:#FFFFFF;" d="M298.403,189.188c13.699-7.655,29.338-11.635,45.029-11.513
								c4.479,0.035,8.95,0.406,13.373,1.111c0.944,0.15,1.351-1.295,0.399-1.446c-15.831-2.521-32.232-0.862-47.231,4.812
								c-4.246,1.606-8.365,3.528-12.327,5.742C296.803,188.363,297.559,189.66,298.403,189.188L298.403,189.188z"/>
						</g>
					</g>
					<g>
						<g>
							<path style="fill:#FFFFFF;" d="M284.884,275.722c21.638,3.841,43.62,5.686,65.596,5.45c6.27-0.067,12.538-0.307,18.796-0.706
								c0.959-0.061,0.966-1.562,0-1.5c-21.783,1.39-43.685,0.771-65.351-1.886c-6.238-0.765-12.454-1.706-18.642-2.805
								C284.339,274.108,283.934,275.553,284.884,275.722L284.884,275.722z"/>
						</g>
					</g>
					<g>
						<g>
							<path style="fill:#FFFFFF;" d="M285.113,317.648c2.431,15.568,4.067,31.252,4.911,46.986c0.051,0.96,1.552,0.966,1.5,0
								c-0.851-15.868-2.513-31.684-4.965-47.384C286.411,316.298,284.965,316.702,285.113,317.648L285.113,317.648z"/>
						</g>
					</g>
				</g>
			</g>
		</g>
	</g>
	<g>
		<ellipse style="opacity:0.3;fill:#B5C8DD;" cx="170.473" cy="422.088" rx="84.481" ry="16.278"/>
		<g>
			<g>
				<g>
					<path style="fill:#FFB830;" d="M246.569,267.521c-1.002,7.525-2.003,15.05-3.017,22.587c-0.99,7.385-1.968,14.77-2.959,22.167
						c-0.699,5.196-1.805,10.542-2.097,15.819c-0.105,1.922-0.105,3.833,0.07,5.72c0.582,6.756-1.911,14.526-3.017,21.201
						c-1.072,6.477-1.002,13.116-1.806,19.698c-0.978,8.224-2.178,16.413-3.203,24.637c-0.093,0.746-0.175,1.491-0.268,2.272
						c-0.105,0.792-0.186,1.596-0.291,2.423c-0.664,5.51-1.468,11.218-3.378,16.25c-2.132,5.626-12.802,8.038-17.962,9.273
						c-4.182,1.002-8.434,1.724-12.709,2.248c-3.704,0.454-7.432,0.757-11.16,0.955v0.14c-2.772,0.105-5.673,0.187-8.713,0.187
						c-0.944,0-1.899,0-2.842-0.012c-0.955,0.012-1.911,0.012-2.854,0.012c-3.029,0-5.929-0.082-8.713-0.187v-0.14
						c-8.038-0.431-16.063-1.34-23.857-3.203c-5.16-1.235-15.83-3.646-17.974-9.273c-1.899-5.032-2.714-10.74-3.366-16.25
						c-0.07-0.524-0.128-1.025-0.175-1.538c-0.128-1.072-0.256-2.12-0.396-3.157c-1.025-8.224-2.213-16.413-3.192-24.637
						c-0.804-6.581-0.746-13.221-1.805-19.698c-0.117-0.687-0.245-1.398-0.385-2.108c-0.536-2.726-1.211-5.58-1.747-8.457
						c-0.699-3.623-1.176-7.257-0.885-10.635c0.629-7.117-1.095-14.456-2.027-21.539c-1.002-7.397-1.98-14.782-2.971-22.167
						c-1.002-7.537-2.004-15.062-3.017-22.587l3.774-33.478l-0.07-1.048c0,0-0.035-0.326,0-0.326l1.933,0.14l67.726,4.846
						l67.725-4.846l1.922-0.14c0.023,0,0,0.326,0,0.326l-0.07,1.048L246.569,267.521z"/>
					<path style="fill:#C5DE6F;" d="M241.968,340.419c-0.128,0.35-0.175,0.71-0.163,1.083c0.035,0.711-0.093,2.085-1.258,3.576
						c-1.106,1.456-3.192,3.017-7.036,4.217c-1.91,0.594-4.263,1.106-7.152,1.456c-0.082,0.011-0.175,0.023-0.257,0.023
						c-1.142,0.058-27.013,0.932-52.885,0.932c-13.338,0-26.675-0.233-36.624-0.466c0,0-0.012-0.012-0.023,0
						c-9.342-0.221-15.691-0.443-16.238-0.466c-0.093,0-0.175-0.012-0.268-0.023c-11.288-1.375-14.398-5.091-15.19-7.525
						c-0.244-0.71-0.268-1.316-0.257-1.724c0.023-0.373-0.035-0.734-0.151-1.083c-5.836-16.39-5.894-113.785-5.859-132.411
						c0.012-1.701,1.386-3.076,3.087-3.076h143.034c1.701,0,3.087,1.375,3.087,3.076
						C247.862,226.634,247.792,324.029,241.968,340.419z"/>
					<path style="fill:#FFB830;" d="M246.278,184.14v11.695c0,5.021-4.077,9.098-9.109,9.098H109.254
						c-5.02,0-9.097-4.077-9.097-9.098V184.14H246.278z"/>
				</g>
				<g>
					<path style="fill:#E8A600;" d="M246.278,184.14v11.695c0,5.021-4.077,9.098-9.109,9.098h-41.784
						c-0.117-0.058-0.233-0.128-0.35-0.186c0.571-2.703-1.875-5.16-4.426-6.197c-9.901-4.065-19.43-6.267-30.065-8.294
						c-10.95-2.085-22.051-3.262-33.176-3.937c-2.912-0.186-19.418-2.236-27.211-1.841v-0.338H246.278z"/>
				</g>
				<g>
					<path style="fill:#E8A600;" d="M226.364,350.755c-0.088,0.011-0.177,0.018-0.265,0.022c-1.138,0.05-27.011,0.934-52.885,0.934
						c-25.873,0-51.747-0.884-52.884-0.934c-0.088-0.004-0.177-0.011-0.265-0.022c-4.935-0.601-8.307-1.65-10.606-2.844
						c0.359,1.693,0.722,3.37,1.041,4.995c40.142-2.807,94.995,18.44,88.798,66.246c-0.559,4.345-1.712,8.608-3.366,12.662
						c4.275-0.524,8.527-1.246,12.709-2.248c5.16-1.235,15.831-3.646,17.962-9.273c1.91-5.032,2.714-10.74,3.378-16.25
						c0.105-0.827,0.186-1.631,0.291-2.423c0.093-0.78,0.175-1.526,0.268-2.272c1.025-8.224,2.225-16.413,3.203-24.637
						c0.804-6.581,0.734-13.221,1.806-19.698c0.376-2.272,0.913-4.671,1.435-7.113C234.685,349.099,231.312,350.152,226.364,350.755
						z"/>
				</g>
				<path style="fill:#C5DE6F;" d="M248.549,184.14H99.341c0,0-7.187,1.258-5.44-5.323c0,0,5.137-35.727,14.083-47.643
					c0,0,1.165-2.05,3.832-3.169c1.701-0.722,3.995-1.06,6.978-0.268l118.828,28.05c0,0,9.459,2.108,10.926,8.608l3.576,12.849
					C252.125,177.244,255.107,183.755,248.549,184.14z"/>
				<path style="fill:#FFE551;" d="M230.272,401.621c-0.105,0.792-0.186,1.596-0.291,2.423c-0.664,5.51-1.468,11.218-3.378,16.25
					c-2.132,5.626-12.802,8.038-17.962,9.273c-4.182,1.002-8.434,1.724-12.709,2.248c-3.704,0.454-7.432,0.757-11.16,0.955v0.14
					c-2.772,0.105-5.673,0.187-8.713,0.187c-0.944,0-1.899,0-2.842-0.012c-0.955,0.012-1.911,0.012-2.854,0.012
					c-3.029,0-5.929-0.082-8.713-0.187v-0.14c-8.038-0.431-16.063-1.34-23.857-3.203c-5.16-1.235-15.83-3.646-17.974-9.273
					c-1.899-5.032-2.714-10.74-3.366-16.25c-0.07-0.524-0.128-1.025-0.175-1.538c14.421,4.461,44.463,11.148,83.369,5.684
					C209.34,406.828,219.591,404.708,230.272,401.621z"/>
				<g>
					<path style="fill:#F5D72C;" d="M230.272,401.621c-0.105,0.792-0.186,1.596-0.291,2.423c-0.664,5.51-1.468,11.218-3.378,16.25
						c-2.132,5.626-12.802,8.038-17.962,9.273c-4.182,1.002-8.434,1.724-12.709,2.248c1.654-4.054,2.807-8.317,3.366-12.662
						c0.501-3.82,0.606-7.478,0.35-10.961C209.34,406.828,219.591,404.708,230.272,401.621z"/>
				</g>
				<g>
					<path style="fill:#9BCD5A;" d="M241.968,340.419c-0.128,0.35-0.175,0.71-0.163,1.083c0.035,0.711-0.093,2.085-1.258,3.576
						c-2.225,1.596-4.578,2.993-7.036,4.217c-1.91,0.594-4.263,1.106-7.152,1.456c-0.082,0.011-0.175,0.023-0.257,0.023
						c-1.142,0.058-27.013,0.932-52.885,0.932c-13.338,0-26.675-0.233-36.624-0.466c13.536-3.611,27.642-3.774,40.98-9.156
						c6.558-2.644,12.895-6.046,18.184-10.752c4.252-3.786,7.758-8.341,10.891-13.105c11.521-17.508,18.219-38.511,16.949-59.42
						c-1.258-20.618-10.693-40.98-26.792-53.875h47.923c1.701,0,3.087,1.375,3.087,3.076
						C247.862,226.634,247.792,324.029,241.968,340.419z"/>
				</g>
				<g>
					<g>
						<g>
							<g>
								<g>
									<g>
										<path style="fill:#9BCD5A;" d="M161.779,272.581c-5.255-5.626-12.124-9.725-20.384-11.39
											c0.747,9.395,4.562,19.025,10.153,26.609c3.054,4.142,7.204,7.377,11.778,9.688c2.289,1.157,4.706,2.114,7.178,2.801
											c3.142,0.873,3.234,0.482,2.814-2.596C172.02,288.176,168.048,279.292,161.779,272.581z"/>
									</g>
									<g>
										<path style="fill:#9BCD5A;" d="M184.57,272.581c5.255-5.626,12.124-9.725,20.384-11.39
											c-0.747,9.395-4.562,19.025-10.153,26.609c-3.054,4.142-7.204,7.377-11.778,9.688c-2.289,1.157-4.706,2.114-7.178,2.801
											c-3.142,0.873-3.234,0.482-2.814-2.596C174.329,288.176,178.301,279.292,184.57,272.581z"/>
									</g>
									<g>
										<path style="fill:#9BCD5A;" d="M165.946,256.825c0.551-5.958,2.82-11.747,7.102-16.702
											c4.014,6.128,6.254,13.862,6.429,21.184c0.096,3.999-0.914,7.962-2.625,11.56c-0.856,1.8-1.885,3.539-3.077,5.138
											c-1.515,2.033-1.758,1.836-2.965-0.255C167.078,271.283,165.29,263.934,165.946,256.825z"/>
									</g>
								</g>
							</g>
						</g>
					</g>
				</g>
				<g>
					<path style="fill:#9BCD5A;" d="M252.125,177.244l-3.576-12.849c-1.468-6.5-10.926-8.608-10.926-8.608l-91.483-21.595
						c6.493,4.197,12.071,9.332,15.268,15.784c4.056,8.184,1.303,17.253-5.728,22.824c-6.991,5.539-16.318,6.998-25.149,7.338
						c-0.598,0.113-1.195,0.225-1.789,0.333c-10.95,2.015-20.875,2.4-31.941,2.912c15.609,0,31.265,0.315,46.874,0.757h104.873
						C255.107,183.755,252.125,177.244,252.125,177.244z"/>
				</g>
				<path style="fill:#89BA49;" d="M244.068,158.562c-0.577,2.495-30.527-2.304-66.896-10.72
					c-36.368-8.415-65.383-17.26-64.805-19.755c0.577-2.495,30.528,2.304,66.896,10.72
					C215.631,147.223,244.645,156.067,244.068,158.562z"/>
				<g>
					<g>
						<g>
							<path style="fill:#FFFFFF;" d="M118.746,137.664c20.101,8.321,40.898,14.935,62.121,19.722
								c5.997,1.353,12.027,2.556,18.081,3.62c0.944,0.166,1.349-1.279,0.399-1.446c-21.427-3.765-42.525-9.345-63.002-16.693
								c-5.786-2.077-11.52-4.297-17.2-6.648C118.253,135.849,117.865,137.299,118.746,137.664L118.746,137.664z"/>
						</g>
					</g>
					<g>
						<g>
							<path style="fill:#FFFFFF;" d="M107.489,220.677c-1.821,27.657-1.574,55.443,0.766,83.062
								c0.664,7.844,1.501,15.672,2.498,23.48c0.121,0.944,1.622,0.957,1.5,0c-3.511-27.494-4.965-55.242-4.32-82.953
								c0.183-7.87,0.539-15.735,1.056-23.589C109.053,219.714,107.552,219.717,107.489,220.677L107.489,220.677z"/>
						</g>
					</g>
					<g>
						<g>
							<path style="fill:#FFFFFF;" d="M116.713,361.065c2.781,9.635,4.152,19.603,4.075,29.631c-0.007,0.966,1.493,0.966,1.5,0
								c0.078-10.153-1.313-20.274-4.128-30.03C117.892,359.74,116.444,360.134,116.713,361.065L116.713,361.065z"/>
						</g>
					</g>
				</g>
				<g>
					
						<path style="fill:none;stroke:#8F633C;stroke-width:1.3;stroke-linecap:round;stroke-linejoin:round;stroke-miterlimit:10;" d="
						M163.483,351.62c4.927,0.043,9.855,0.112,14.783,0.092"/>
					
						<path style="fill:none;stroke:#8F633C;stroke-width:1.3;stroke-linecap:round;stroke-linejoin:round;stroke-miterlimit:10;" d="
						M109.449,347.904c11.379,3.811,30.439,3.412,45.53,3.639"/>
					
						<path style="fill:none;stroke:#8F633C;stroke-width:1.3;stroke-linecap:round;stroke-linejoin:round;stroke-miterlimit:10;" d="
						M199.531,184.144c10.28,0.472,21.649,0.472,31.401,0"/>
					
						<path style="fill:none;stroke:#8F633C;stroke-width:1.3;stroke-linecap:round;stroke-linejoin:round;stroke-miterlimit:10;" d="
						M99.344,184.144c28.361,0.472,57.414,0.472,85.608,0"/>
					
						<line style="fill:none;stroke:#8F633C;stroke-width:1.3;stroke-linecap:round;stroke-linejoin:round;stroke-miterlimit:10;" x1="247.818" y1="208.938" x2="247.821" y2="276.855"/>
				</g>
			</g>
		</g>
	</g>
	<g>
		<path style="fill:#FFFFFF;" d="M121.298,163.042c-0.97-0.978-2.581-1.717-3.461-2.738c-1.004-1.163-1.264-2.614-2.147-3.829
			c-0.49-0.674-1.792-0.674-2.282,0c-0.856,1.178-1.066,2.79-2.036,3.919c-0.908,1.058-2.568,1.635-3.573,2.648
			c-0.34,0.342-0.34,0.804,0,1.147c1.018,1.026,2.613,1.605,3.532,2.677c0.955,1.115,1.232,2.727,2.076,3.889
			c0.49,0.675,1.793,0.675,2.282,0c0.909-1.251,0.908-2.919,1.945-4.115c0.854-0.985,2.726-1.507,3.664-2.452
			C121.637,163.846,121.637,163.384,121.298,163.042z"/>
		<path style="fill:#FFFFFF;" d="M138.081,181.152c-0.765-0.771-2.036-1.354-2.73-2.16c-0.792-0.918-0.997-2.062-1.693-3.02
			c-0.386-0.532-1.414-0.532-1.8,0c-0.675,0.929-0.841,2.201-1.606,3.091c-0.716,0.834-2.026,1.29-2.818,2.088
			c-0.268,0.27-0.268,0.634,0,0.905c0.803,0.809,2.061,1.266,2.786,2.112c0.754,0.88,0.971,2.151,1.638,3.068
			c0.386,0.532,1.414,0.532,1.8,0c0.717-0.987,0.716-2.303,1.534-3.246c0.674-0.777,2.15-1.189,2.89-1.934
			C138.35,181.787,138.35,181.423,138.081,181.152z"/>
	</g>
	<g>
		<path style="fill:#FFFFFF;" d="M413.837,230.704c-1.294-1.305-3.443-2.291-4.618-3.653c-1.339-1.552-1.687-3.488-2.865-5.109
			c-0.654-0.9-2.392-0.9-3.045,0c-1.142,1.572-1.423,3.723-2.716,5.229c-1.212,1.411-3.427,2.182-4.767,3.533
			c-0.453,0.457-0.453,1.073,0,1.53c1.359,1.369,3.486,2.141,4.713,3.573c1.275,1.488,1.643,3.638,2.77,5.19
			c0.654,0.9,2.392,0.9,3.045,0c1.212-1.669,1.212-3.895,2.595-5.49c1.14-1.314,3.637-2.011,4.888-3.272
			C414.291,231.777,414.291,231.16,413.837,230.704z"/>
		<path style="fill:#FFFFFF;" d="M387.673,254.106c-1.021-1.029-2.716-1.807-3.643-2.882c-1.056-1.224-1.33-2.751-2.259-4.03
			c-0.516-0.71-1.887-0.71-2.402,0c-0.9,1.24-1.122,2.937-2.143,4.125c-0.956,1.113-2.703,1.721-3.76,2.787
			c-0.358,0.361-0.358,0.846,0,1.207c1.071,1.08,2.75,1.689,3.717,2.818c1.006,1.174,1.296,2.87,2.185,4.094
			c0.516,0.71,1.887,0.71,2.402,0c0.956-1.316,0.956-3.072,2.047-4.331c0.899-1.037,2.869-1.586,3.856-2.581
			C388.031,254.952,388.031,254.466,387.673,254.106z"/>
	</g>
</g>
</svg>
